<?xml version="1.0" encoding="utf-8"?>
<!-- Generator: Adobe Illustrator 26.0.1, SVG Export Plug-In . SVG Version: 6.00 Build 0)  -->
<svg version="1.1" id="Layer_1" xmlns="http://www.w3.org/2000/svg" xmlns:xlink="http://www.w3.org/1999/xlink" x="0px" y="0px"
	 viewBox="0 0 2000 2000" style="enable-background:new 0 0 2000 2000;" xml:space="preserve">
<style type="text/css">
	.st0{display:none;}
	.st1{fill:#FFFFFF;}
	.st2{fill-rule:evenodd;clip-rule:evenodd;fill:#EFCB30;}
	.st3{fill:#EFCB30;}
	.st4{fill-rule:evenodd;clip-rule:evenodd;}
	.st5{fill-rule:evenodd;clip-rule:evenodd;fill:#FFFFFF;}
	.st6{fill:none;stroke:#000000;stroke-width:15;stroke-miterlimit:10;}
	.st7{fill:none;stroke:#EFCB30;stroke-width:20;stroke-miterlimit:10;}
	.st8{fill:none;stroke:#000000;stroke-width:10;stroke-miterlimit:10;}
	.st9{fill:none;stroke:#000000;stroke-width:20;stroke-miterlimit:10;}
	.st10{fill:none;stroke:#FFFFFF;stroke-width:15;stroke-miterlimit:10;}
	.st11{fill:none;stroke:#FFFFFF;stroke-width:10;stroke-miterlimit:10;}
	.st12{fill:none;stroke:#FFFFFF;stroke-width:20;stroke-miterlimit:10;}
	.st13{stroke:#000000;stroke-miterlimit:10;}
	.st14{fill:none;stroke:#EFCB30;stroke-width:25;stroke-miterlimit:10;}
	.st15{fill:#FFFFFF;stroke:#000000;stroke-miterlimit:10;}
	.st16{fill:#FFFFFF;stroke:#FFFFFF;stroke-miterlimit:10;}
	.st17{fill:#EFCB30;stroke:#EFCB30;stroke-miterlimit:10;}
</style>
<rect x="-441.78" y="-181.96" class="st0" width="2720.35" height="2313.39"/>
<g>
	<path class="st1" d="M5128.85,1694.32h-8.59l0.12-132.87c0.01-9.41-1.13-18.63-3.29-26.55l-11.92-43.78l7.22-10.94l11.92,43.78
		c3.05,11.19,4.66,24.22,4.65,37.53L5128.85,1694.32z"/>
	<path class="st2" d="M5135.98,1701.46h-22.86l0.12-140.01c0.01-8.87-1.07-17.45-3.04-24.67c0,0,0,0,0,0l-12.77-46.89l17.69-26.82
		l16.07,59.01c0,0,0,0,0,0c3.24,11.89,4.92,25.56,4.9,39.41c0,0,0,0,0,0L5135.98,1701.46z M5124.31,1523.96
		c3.05,11.19,4.66,24.22,4.65,37.53l-0.11,132.84h-8.59l0.12-132.87c0.01-9.41-1.13-18.63-3.29-26.55l-11.92-43.78l7.22-10.94
		L5124.31,1523.96z"/>
	<path class="st1" d="M5863.34,1694.32l-0.12-132.84c-0.01-13.31,1.6-26.34,4.66-37.53l11.92-43.77l7.22,10.96l-11.89,43.77
		c-2.16,7.91-3.3,17.12-3.29,26.53l0.11,132.84L5863.34,1694.32z"/>
	<path class="st2" d="M5856.21,1701.5l-0.12-140.01c0,0,0,0,0,0c-0.01-13.85,1.67-27.53,4.91-39.42l16.07-59.02l17.69,26.84
		l-12.74,46.88c-1.97,7.21-3.05,15.79-3.04,24.65l0.11,139.95L5856.21,1701.5z M5867.88,1523.95c-3.05,11.19-4.67,24.23-4.66,37.53
		l0.12,132.84l8.61-0.05l-0.11-132.84c-0.01-9.41,1.13-18.62,3.29-26.53l11.89-43.77l-7.22-10.96L5867.88,1523.95z"/>
	<path d="M5147.81,2061.93h-63.04c-7.65-0.01-14.98-3.79-20.39-10.53c-5.41-6.73-8.46-15.86-8.47-25.39v-290.39
		c0.01-9.53,3.05-18.67,8.46-25.41c5.41-6.74,12.75-10.53,20.4-10.54h63.04c7.65,0.01,14.99,3.8,20.4,10.54
		c5.41,6.74,8.45,15.88,8.46,25.41v290.39c-0.02,9.52-3.06,18.65-8.47,25.39C5162.79,2058.14,5155.45,2061.92,5147.81,2061.93z
		 M5084.77,1724.2c-2.44,0-4.79,1.22-6.52,3.37c-1.73,2.15-2.71,5.07-2.71,8.11v290.34c0,3.05,0.98,5.97,2.71,8.12
		c1.73,2.16,4.08,3.37,6.52,3.37h63.04c2.44-0.01,4.79-1.23,6.51-3.38c1.73-2.16,2.7-5.08,2.7-8.12v-290.39
		c0-3.04-0.98-5.96-2.7-8.11c-1.73-2.15-4.07-3.36-6.51-3.37L5084.77,1724.2z"/>
	<path class="st3" d="M5174.75,2023.73v-377.82c0.01-5.91,2.55-11.57,7.08-15.75c4.52-4.18,10.65-6.53,17.05-6.54h597.21
		c2.76,0,5.41,1.01,7.36,2.82c1.95,1.8,3.05,4.25,3.05,6.8v390.49c0,8.48-0.81,16.95-2.41,25.31c7.27,1.35,14.56,2.58,21.87,3.75
		c1.85-9.59,2.78-19.32,2.78-29.06v-390.49c-0.01-8-3.45-15.67-9.57-21.32c-6.12-5.66-14.42-8.84-23.08-8.84h-597.21
		c-12.29,0.01-24.07,4.53-32.77,12.56c-8.69,8.03-13.58,18.92-13.59,30.28v377.82c0,9.2,0.84,18.39,2.5,27.46
		c7.6,5.08,16.2,8.73,25.32,10.75C5176.63,2049.49,5174.75,2036.64,5174.75,2023.73z"/>
	<path class="st3" d="M5707.97,2306.43H4981v-50.55c0.05-45.82,18.71-89.74,51.89-122.14c33.18-32.4,78.16-50.62,125.07-50.67h39.79
		c0.28-7.08,0.41-14.12,0.47-21.13h-40.26c-52.66,0.04-103.16,20.49-140.4,56.85c-37.24,36.36-58.19,85.67-58.25,137.1v71.71h746.31
		C5706.46,2320.51,5707.24,2313.49,5707.97,2306.43z"/>
	<path class="st3" d="M5782.2,2061.93h-35.35c0.1,7.05,0.16,14.09,0.19,21.13h35.17c50.55,0.05,99.02,17.14,134.77,47.52
		c35.75,30.38,55.86,71.56,55.92,114.53v61.34h-238.09c-0.84,7.06-1.74,14.09-2.68,21.13h265.66v-82.48
		c-0.06-48.57-22.8-95.13-63.21-129.47C5894.15,2081.3,5839.36,2061.98,5782.2,2061.93z"/>
	<path class="st3" d="M6010.04,2303.44H4971.21c-9.56,0.01-18.72,3.85-25.48,10.67c-6.76,6.82-10.56,16.06-10.58,25.7v96.31
		c0.01,9.64,3.81,18.89,10.57,25.71c6.76,6.82,15.92,10.65,25.48,10.66h310.98v-22.64h-310.98c-3.59,0-7.04-1.44-9.58-4
		c-2.54-2.56-3.97-6.04-3.97-9.66v-96.31c0-3.62,1.43-7.1,3.97-9.66s5.98-4,9.58-4h1038.83c3.59,0,7.04,1.44,9.57,4
		c2.54,2.56,3.97,6.04,3.97,9.66v96.31c0,3.62-1.43,7.1-3.97,9.66c-2.54,2.56-5.98,4-9.57,4h-301.3v22.64h301.3
		c9.56-0.01,18.72-3.85,25.47-10.67c6.75-6.82,10.55-16.06,10.56-25.7v-96.31c-0.01-9.64-3.81-18.89-10.56-25.7
		C6028.76,2307.29,6019.6,2303.45,6010.04,2303.44z"/>
	<path class="st3" d="M5718.56,2327.59h-469.45v-435.38c0.01-6.89,2.59-13.5,7.2-18.39c4.6-4.9,10.85-7.69,17.39-7.76l171.09-8.01
		l45.92-13.46l40.88,12.79l182.89,8.56c4.7,0.08,9.19,2.1,12.49,5.64c3.3,3.53,5.15,8.29,5.16,13.25v428.39
		c0.01,1.88-0.34,3.75-1.02,5.49c-0.68,1.74-1.68,3.33-2.93,4.66c-1.26,1.33-2.75,2.4-4.4,3.12
		C5722.12,2327.21,5720.35,2327.58,5718.56,2327.59z M5269.41,2306.21h442.45v-418.93l-183.67-8.61l-37.67-11.79l-42.57,12.46
		l-174.04,8.06c-1.22,0-2.39,0.51-3.25,1.42c-0.86,0.91-1.34,2.14-1.34,3.42L5269.41,2306.21z"/>
	<path d="M5177.4,2503.3v98.1h-148.28v-98.1h-22.46v120.75h193.2V2503.3H5177.4z"/>
	<path d="M5961.64,2509.61v98.1h-148.28v-98.1h-22.46v120.75h193.2v-120.75H5961.64z"/>
	<path d="M5197.01,2277.98H5048.4c-4.76,0-9.32-1.94-12.69-5.39c-3.37-3.45-5.26-8.13-5.26-13.01v-55.79c0-5.56,2.16-10.9,6-14.84
		c3.84-3.93,9.04-6.15,14.47-6.15h108.81c4.89,0,9.74,0.99,14.26,2.9c4.52,1.92,8.63,4.73,12.09,8.28s6.21,7.75,8.08,12.39
		c1.87,4.63,2.84,9.6,2.84,14.62V2277.98z M5049.65,2258.35h128.2v-37.36c0-2.44-0.47-4.85-1.38-7.1c-0.91-2.25-2.25-4.3-3.93-6.02
		c-1.68-1.72-3.68-3.09-5.88-4.02c-2.2-0.93-4.55-1.4-6.93-1.4h-108.78c-0.17,0-0.34,0.03-0.5,0.1c-0.16,0.06-0.3,0.16-0.43,0.29
		c-0.12,0.13-0.22,0.27-0.28,0.44c-0.06,0.16-0.1,0.34-0.1,0.51V2258.35z"/>
	<path d="M5904.87,2277.86h-148.59v-57.01c0.01-10.12,3.93-19.82,10.9-26.97c6.98-7.15,16.44-11.18,26.3-11.19h108.88
		c5.43,0,10.64,2.22,14.47,6.15c3.84,3.94,6,9.27,6,14.84v55.81c-0.02,4.88-1.92,9.55-5.28,12.99
		C5914.18,2275.92,5909.62,2277.86,5904.87,2277.86z M5775.43,2258.22h128.23v-54.58c0-0.18-0.03-0.35-0.1-0.51
		c-0.06-0.16-0.16-0.31-0.28-0.44c-0.12-0.12-0.27-0.22-0.43-0.29c-0.16-0.07-0.33-0.1-0.5-0.1h-108.88c-2.37,0-4.72,0.48-6.91,1.42
		c-2.19,0.93-4.18,2.3-5.86,4.02c-1.67,1.72-3,3.77-3.91,6.02c-0.91,2.25-1.37,4.66-1.37,7.09V2258.22z"/>
	<path d="M5896.47,2061.93h-63.03c-7.65-0.01-14.99-3.8-20.4-10.54c-5.41-6.74-8.46-15.88-8.47-25.41v-290.35
		c0.01-9.53,3.05-18.67,8.47-25.41c5.41-6.74,12.75-10.53,20.4-10.54h63.06c7.65,0.02,14.97,3.82,20.38,10.56
		c5.4,6.74,8.44,15.87,8.45,25.39v290.4c-0.02,9.52-3.07,18.64-8.47,25.37C5911.45,2058.13,5904.12,2061.92,5896.47,2061.93z
		 M5833.45,1724.15c-2.45,0-4.79,1.22-6.52,3.38c-1.73,2.16-2.7,5.08-2.7,8.12v290.4c0,3.04,0.98,5.96,2.71,8.11
		c1.73,2.15,4.07,3.36,6.51,3.37h63.06c2.44,0,4.78-1.22,6.51-3.37c1.73-2.15,2.7-5.07,2.71-8.11v-290.42c0-3.05-0.97-5.97-2.7-8.12
		c-1.73-2.16-4.07-3.37-6.52-3.37L5833.45,1724.15z"/>
	<path d="M5249.11,1844.58v-169.05l483.01,2.59v166.46l-242.59-28.43L5249.11,1844.58z M5489.52,1796.83l222.21,26.03v-125.71
		l-442.21-2.37v128.07L5489.52,1796.83z"/>
	<path d="M5683.82,2593.24h-362.26v-193.2h362.26V2593.24z M5343.32,2567.94h318.77v-142.6h-318.77V2567.94z"/>
	<path class="st4" d="M5482.53,2289.16v-392.59h23.79v392.59H5482.53z"/>
</g>
<g>
	<path class="st1" d="M5115.99,3020.22h-9.18l0.12-142.03c0.01-10.06-1.21-19.92-3.52-28.38l-12.74-46.8l7.72-11.7l12.74,46.8
		c3.26,11.96,4.98,25.89,4.97,40.11L5115.99,3020.22z"/>
	<path class="st2" d="M5123.62,3027.85h-24.44l0.13-149.66c0.01-9.48-1.15-18.65-3.25-26.37c0,0,0,0,0,0l-13.65-50.13l18.91-28.67
		l17.18,63.08c0,0,0,0,0,0c3.46,12.71,5.25,27.32,5.24,42.13c0,0,0,0,0,0L5123.62,3027.85z M5111.14,2838.11
		c3.26,11.96,4.98,25.89,4.97,40.11l-0.12,141.99h-9.18l0.12-142.03c0.01-10.06-1.21-19.92-3.52-28.38l-12.74-46.8l7.72-11.7
		L5111.14,2838.11z"/>
	<path class="st1" d="M5901.12,3020.22l-0.12-141.99c-0.01-14.23,1.71-28.16,4.98-40.12l12.74-46.79l7.72,11.71l-12.71,46.79
		c-2.31,8.45-3.53,18.3-3.52,28.36l0.12,141.99L5901.12,3020.22z"/>
	<path class="st2" d="M5893.5,3027.89l-0.13-149.66c0,0,0,0,0,0c-0.02-14.81,1.78-29.43,5.24-42.13l17.18-63.09l18.91,28.69
		l-13.61,50.11c-2.1,7.71-3.26,16.88-3.25,26.35l0.12,149.59L5893.5,3027.89z M5905.97,2838.1c-3.26,11.96-4.99,25.9-4.98,40.12
		l0.12,142l9.2-0.05l-0.12-141.99c-0.01-10.06,1.21-19.91,3.51-28.36l12.71-46.79l-7.72-11.71L5905.97,2838.1z"/>
	<path class="st1" d="M5136.26,3413.17h-67.38c-8.17-0.01-16.01-4.06-21.79-11.25c-5.78-7.2-9.04-16.95-9.06-27.14v-310.41
		c0.01-10.19,3.26-19.96,9.04-27.16c5.78-7.21,13.62-11.26,21.8-11.27h67.38c8.18,0.01,16.02,4.06,21.8,11.27
		c5.78,7.2,9.03,16.97,9.04,27.16v310.41c-0.02,10.18-3.27,19.94-9.06,27.14C5152.27,3409.12,5144.43,3413.16,5136.26,3413.17z
		 M5068.88,3052.16c-2.61,0.01-5.12,1.3-6.97,3.6c-1.85,2.3-2.89,5.42-2.9,8.67v310.35c0,3.26,1.04,6.38,2.89,8.68
		c1.85,2.3,4.36,3.6,6.97,3.61h67.38c2.61-0.01,5.11-1.31,6.96-3.61c1.85-2.3,2.88-5.43,2.89-8.68v-310.41
		c0-3.25-1.04-6.37-2.89-8.67c-1.85-2.3-4.35-3.59-6.96-3.6L5068.88,3052.16z"/>
	<path class="st3" d="M5165.06,3372.34v-403.87c0.01-6.32,2.73-12.37,7.56-16.84c4.83-4.47,11.39-6.98,18.22-6.99h638.37
		c2.95,0,5.78,1.08,7.87,3.01c2.09,1.93,3.26,4.55,3.26,7.27v417.41c0,9.07-0.86,18.12-2.58,27.05c7.77,1.44,15.57,2.76,23.38,4.01
		c1.98-10.25,2.97-20.65,2.97-31.06v-417.41c-0.01-8.55-3.69-16.75-10.23-22.79c-6.54-6.05-15.41-9.45-24.67-9.45h-638.37
		c-13.14,0.01-25.73,4.84-35.02,13.43c-9.29,8.58-14.52,20.22-14.53,32.36v403.87c0,9.84,0.9,19.65,2.67,29.35
		c8.12,5.43,17.32,9.33,27.07,11.49C5167.06,3399.87,5165.06,3386.14,5165.06,3372.34z"/>
	<path class="st3" d="M5735.04,3674.52h-777.09v-54.03c0.06-48.98,20-95.93,55.47-130.56c35.46-34.63,83.54-54.11,133.7-54.16h42.53
		c0.3-7.56,0.44-15.09,0.51-22.59h-43.03c-56.29,0.05-110.27,21.9-150.08,60.77c-39.81,38.87-62.2,91.57-62.26,146.55v76.65h797.76
		C5733.42,3689.58,5734.26,3682.07,5735.04,3674.52z"/>
	<path class="st3" d="M5814.39,3413.17h-37.79c0.11,7.53,0.17,15.06,0.2,22.59h37.59c54.04,0.06,105.85,18.32,144.06,50.79
		c38.21,32.47,59.71,76.5,59.77,122.42v65.57h-254.5c-0.9,7.55-1.86,15.06-2.87,22.59h283.97v-88.16
		c-0.07-51.92-24.37-101.69-67.57-138.4C5934.05,3433.87,5875.48,3413.23,5814.39,3413.17z"/>
	<path class="st3" d="M6057.93,3671.32H4947.49c-10.22,0.01-20.01,4.12-27.24,11.4c-7.22,7.29-11.29,17.17-11.3,27.48v102.95
		c0.01,10.31,4.07,20.19,11.3,27.48s17.02,11.39,27.24,11.4h332.41v-24.21h-332.41c-3.84,0-7.52-1.54-10.24-4.28
		c-2.71-2.74-4.24-6.45-4.24-10.33v-102.95c0-3.87,1.52-7.59,4.24-10.33c2.71-2.74,6.4-4.28,10.24-4.28h1110.44
		c3.84,0,7.52,1.54,10.23,4.28c2.72,2.74,4.24,6.45,4.24,10.33v102.95c0,3.87-1.52,7.59-4.24,10.33c-2.71,2.74-6.39,4.28-10.23,4.28
		h-322.07v24.21h322.07c10.22-0.02,20.01-4.12,27.23-11.4c7.22-7.29,11.28-17.17,11.29-27.48V3710.2
		c-0.01-10.31-4.07-20.19-11.29-27.47C6077.94,3675.44,6068.15,3671.34,6057.93,3671.32z"/>
	<path class="st3" d="M5746.36,3697.14h-501.81v-465.39c0.01-7.36,2.77-14.43,7.69-19.66c4.92-5.23,11.6-8.22,18.58-8.3l182.88-8.57
		l49.08-14.39l43.7,13.67l195.5,9.15c5.03,0.09,9.83,2.25,13.35,6.03c3.53,3.77,5.51,8.86,5.51,14.16v457.92
		c0.01,2.01-0.36,4.01-1.09,5.87c-0.73,1.86-1.79,3.56-3.14,4.98c-1.35,1.43-2.95,2.56-4.71,3.34
		C5750.16,3696.73,5748.27,3697.13,5746.36,3697.14z M5266.24,3674.28h472.95v-447.81l-196.33-9.2l-40.26-12.6l-45.5,13.32
		l-186.04,8.62c-1.3,0-2.55,0.54-3.47,1.51c-0.92,0.97-1.44,2.29-1.44,3.66L5266.24,3674.28z"/>
	<path class="st1" d="M5167.89,3884.97v104.86h-158.5v-104.86h-24.01v129.08h206.52v-129.08H5167.89z"/>
	<path class="st1" d="M6006.19,3891.71v104.86h-158.51v-104.86h-24.01v129.08h206.52v-129.08H6006.19z"/>
	<path class="st1" d="M5188.85,3644.11H5030c-5.09,0-9.96-2.08-13.56-5.76c-3.6-3.69-5.62-8.69-5.62-13.9v-59.64
		c0-5.95,2.31-11.65,6.41-15.86c4.1-4.2,9.67-6.57,15.47-6.57h116.31c5.23,0,10.41,1.05,15.24,3.1c4.83,2.05,9.22,5.06,12.93,8.85
		c3.7,3.79,6.64,8.29,8.64,13.24c2,4.95,3.03,10.26,3.04,15.62V3644.11z M5031.33,3623.13h137.04v-39.94c0-2.61-0.5-5.19-1.47-7.59
		c-0.97-2.41-2.4-4.59-4.2-6.43c-1.8-1.84-3.93-3.3-6.28-4.29c-2.35-0.99-4.87-1.5-7.41-1.5h-116.28c-0.18,0-0.37,0.04-0.54,0.11
		c-0.17,0.07-0.33,0.18-0.46,0.31c-0.13,0.13-0.23,0.29-0.3,0.47s-0.1,0.36-0.1,0.55V3623.13z"/>
	<path class="st1" d="M5945.51,3643.98h-158.83v-60.94c0.01-10.81,4.2-21.18,11.66-28.83c7.46-7.65,17.57-11.95,28.11-11.96h116.38
		c5.8,0.01,11.37,2.37,15.47,6.58s6.41,9.91,6.41,15.86v59.65c-0.02,5.21-2.05,10.2-5.65,13.89
		C5955.46,3641.91,5950.59,3643.98,5945.51,3643.98z M5807.15,3622.99h137.07v-58.34c0-0.19-0.03-0.38-0.1-0.55
		c-0.07-0.18-0.17-0.33-0.3-0.47c-0.13-0.13-0.28-0.24-0.46-0.31c-0.17-0.07-0.35-0.11-0.54-0.1h-116.38
		c-2.54,0-5.05,0.52-7.39,1.51c-2.34,1-4.47,2.46-6.26,4.3c-1.79,1.84-3.21,4.03-4.18,6.43c-0.97,2.4-1.46,4.98-1.46,7.58V3622.99z"
		/>
	<path class="st1" d="M5936.54,3413.17h-67.37c-8.18-0.01-16.03-4.06-21.81-11.27c-5.79-7.21-9.04-16.97-9.05-27.17v-310.36
		c0.01-10.19,3.26-19.96,9.05-27.17c5.78-7.21,13.63-11.26,21.81-11.27h67.41c8.17,0.03,16.01,4.08,21.78,11.29
		c5.77,7.2,9.02,16.96,9.03,27.14v310.42c-0.02,10.18-3.28,19.93-9.06,27.12C5952.54,3409.11,5944.71,3413.16,5936.54,3413.17z
		 M5869.16,3052.1c-2.61,0.01-5.12,1.3-6.97,3.61c-1.85,2.3-2.89,5.43-2.89,8.68v310.42c0,3.25,1.05,6.37,2.89,8.67
		c1.85,2.3,4.35,3.59,6.96,3.6h67.41c2.61-0.01,5.11-1.3,6.96-3.6c1.85-2.3,2.89-5.42,2.89-8.67v-310.44c0-3.26-1.04-6.38-2.88-8.68
		c-1.85-2.3-4.35-3.6-6.97-3.61L5869.16,3052.1z"/>
	<path class="st1" d="M5244.55,3180.83v-180.71l516.31,2.77v177.94l-259.31-30.39L5244.55,3180.83z M5501.53,3129.8l237.53,27.83
		v-134.38l-472.7-2.53v136.89L5501.53,3129.8z"/>
	<path class="st1" d="M5709.23,3981.11H5322v-206.52h387.23V3981.11z M5345.25,3954.06h340.74v-152.43h-340.74V3954.06z"/>
	<path class="st5" d="M5494.06,3656.06v-419.66h25.43v419.66H5494.06z"/>
</g>
<g>
	<circle cx="-3609.19" cy="-492.54" r="960.26"/>
	<g>
		<path class="st1" d="M-3995.9-869.22h-9.18l0.12-142.03c0.01-10.06-1.21-19.92-3.52-28.38l-12.74-46.8l7.72-11.7l12.74,46.8
			c3.26,11.96,4.98,25.89,4.97,40.11L-3995.9-869.22z"/>
		<path class="st2" d="M-3988.28-861.59h-24.44l0.13-149.66c0.01-9.48-1.15-18.65-3.25-26.37c0,0,0,0,0,0l-13.65-50.12l18.91-28.67
			l17.18,63.08c0,0,0,0,0,0c3.46,12.71,5.25,27.32,5.24,42.13c0,0,0,0,0,0L-3988.28-861.59z M-4000.75-1051.33
			c3.26,11.96,4.98,25.89,4.97,40.11l-0.12,141.99h-9.18l0.12-142.03c0.01-10.06-1.21-19.92-3.52-28.38l-12.74-46.8l7.72-11.7
			L-4000.75-1051.33z"/>
		<path class="st1" d="M-3210.77-869.22l-0.12-141.99c-0.01-14.23,1.71-28.16,4.98-40.12l12.74-46.79l7.72,11.71l-12.71,46.79
			c-2.31,8.45-3.53,18.3-3.52,28.36l0.12,141.99L-3210.77-869.22z"/>
		<path class="st2" d="M-3218.4-861.55l-0.13-149.66c0,0,0,0,0,0c-0.02-14.81,1.78-29.43,5.24-42.13l17.18-63.09l18.91,28.69
			l-13.61,50.11c-2.1,7.71-3.26,16.88-3.25,26.35l0.12,149.59L-3218.4-861.55z M-3205.92-1051.34c-3.26,11.96-4.99,25.9-4.98,40.12
			l0.12,142l9.2-0.05l-0.12-141.99c-0.01-10.06,1.21-19.91,3.51-28.36l12.71-46.79l-7.72-11.71L-3205.92-1051.34z"/>
		<path class="st1" d="M-3975.64-476.27h-67.38c-8.17-0.01-16.01-4.06-21.79-11.25c-5.78-7.2-9.04-16.95-9.06-27.14v-310.41
			c0.01-10.19,3.26-19.96,9.04-27.16c5.78-7.21,13.62-11.26,21.8-11.27h67.38c8.18,0.01,16.02,4.06,21.8,11.27
			c5.78,7.2,9.03,16.97,9.04,27.16v310.41c-0.02,10.18-3.27,19.94-9.06,27.14C-3959.62-480.32-3967.46-476.28-3975.64-476.27z
			 M-4043.02-837.28c-2.61,0.01-5.12,1.3-6.97,3.6c-1.85,2.3-2.89,5.42-2.9,8.67v310.35c0,3.26,1.05,6.38,2.89,8.68
			c1.85,2.3,4.36,3.6,6.97,3.61h67.38c2.61-0.01,5.11-1.31,6.96-3.61c1.85-2.3,2.88-5.42,2.89-8.68v-310.41
			c-0.01-3.25-1.04-6.37-2.89-8.67c-1.85-2.3-4.35-3.59-6.96-3.6L-4043.02-837.28z"/>
		<path class="st3" d="M-3946.84-517.1v-403.87c0.01-6.32,2.73-12.37,7.56-16.84c4.83-4.47,11.39-6.98,18.22-6.99h638.37
			c2.95,0,5.78,1.08,7.87,3.01c2.09,1.93,3.26,4.55,3.26,7.27v417.41c0,9.07-0.86,18.12-2.58,27.05c7.77,1.44,15.57,2.76,23.38,4.01
			c1.98-10.25,2.97-20.65,2.97-31.06v-417.41c-0.01-8.55-3.69-16.75-10.23-22.79c-6.54-6.05-15.41-9.45-24.67-9.45h-638.37
			c-13.14,0.01-25.73,4.84-35.02,13.43s-14.52,20.22-14.53,32.36v403.87c0,9.84,0.9,19.65,2.67,29.35
			c8.12,5.43,17.32,9.33,27.07,11.49C-3944.83-489.57-3946.84-503.3-3946.84-517.1z"/>
		<path class="st3" d="M-3376.85-214.92h-777.09v-54.03c0.06-48.98,20-95.93,55.47-130.56c35.46-34.63,83.54-54.11,133.7-54.16
			h42.53c0.3-7.56,0.44-15.09,0.51-22.59h-43.03c-56.29,0.05-110.27,21.9-150.08,60.77c-39.81,38.87-62.2,91.57-62.26,146.55v76.65
			h797.76C-3378.48-199.86-3377.64-207.37-3376.85-214.92z"/>
		<path class="st3" d="M-3297.51-476.27h-37.79c0.11,7.53,0.17,15.06,0.2,22.59h37.59c54.04,0.06,105.85,18.32,144.06,50.79
			c38.21,32.47,59.71,76.5,59.77,122.42v65.57h-254.5c-0.9,7.55-1.86,15.06-2.87,22.59h283.97v-88.16
			c-0.07-51.92-24.37-101.69-67.57-138.4C-3177.84-455.57-3236.42-476.21-3297.51-476.27z"/>
		<path class="st3" d="M-3053.96-218.12H-4164.4c-10.22,0.01-20.01,4.12-27.24,11.4c-7.22,7.29-11.29,17.17-11.3,27.48v102.95
			c0.01,10.31,4.07,20.19,11.3,27.48c7.23,7.29,17.02,11.39,27.24,11.4h332.41v-24.21h-332.41c-3.84,0-7.52-1.54-10.24-4.28
			c-2.71-2.74-4.24-6.45-4.24-10.33v-102.95c0-3.87,1.53-7.59,4.24-10.33c2.71-2.74,6.4-4.28,10.24-4.28h1110.44
			c3.84,0,7.52,1.54,10.23,4.28c2.72,2.74,4.24,6.45,4.24,10.33v102.95c0,3.87-1.52,7.59-4.24,10.33
			c-2.71,2.74-6.39,4.28-10.23,4.28h-322.07v24.21h322.07c10.22-0.02,20.01-4.12,27.23-11.4c7.22-7.29,11.28-17.17,11.29-27.48
			v-102.95c-0.01-10.31-4.07-20.19-11.29-27.47C-3033.95-214-3043.74-218.1-3053.96-218.12z"/>
		<path class="st3" d="M-3365.54-192.3h-501.81v-465.39c0.01-7.36,2.77-14.43,7.69-19.66c4.92-5.23,11.6-8.22,18.58-8.3l182.88-8.57
			l49.08-14.39l43.7,13.67l195.5,9.15c5.03,0.09,9.82,2.25,13.35,6.03c3.53,3.77,5.51,8.86,5.51,14.16v457.92
			c0.01,2.01-0.36,4.01-1.09,5.87c-0.73,1.86-1.79,3.56-3.14,4.98s-2.95,2.56-4.71,3.34
			C-3361.74-192.71-3363.63-192.31-3365.54-192.3z M-3845.65-215.15h472.95v-447.81l-196.33-9.2l-40.26-12.6l-45.5,13.32
			l-186.04,8.62c-1.3,0-2.55,0.54-3.47,1.51c-0.92,0.97-1.44,2.29-1.44,3.66L-3845.65-215.15z"/>
		<path class="st1" d="M-3944-4.47v104.86h-158.5V-4.47h-24.01V124.6h206.52V-4.47H-3944z"/>
		<path class="st1" d="M-3105.7,2.27v104.86h-158.51V2.27h-24.01v129.08h206.52V2.27H-3105.7z"/>
		<path class="st1" d="M-3923.04-245.33h-158.85c-5.09,0-9.96-2.08-13.56-5.76c-3.6-3.69-5.62-8.69-5.62-13.9v-59.64
			c0-5.95,2.31-11.65,6.41-15.86c4.1-4.2,9.67-6.57,15.47-6.57h116.31c5.23,0,10.41,1.05,15.24,3.1c4.83,2.05,9.22,5.06,12.93,8.85
			c3.7,3.79,6.64,8.29,8.64,13.24c2,4.95,3.03,10.26,3.04,15.62V-245.33z M-4080.56-266.31h137.03v-39.94c0-2.61-0.5-5.19-1.47-7.59
			c-0.97-2.41-2.4-4.59-4.2-6.43c-1.8-1.84-3.93-3.3-6.28-4.29c-2.35-0.99-4.87-1.5-7.41-1.5h-116.28c-0.18,0-0.37,0.04-0.54,0.11
			c-0.17,0.07-0.33,0.18-0.46,0.31c-0.13,0.13-0.23,0.29-0.3,0.47c-0.07,0.18-0.1,0.36-0.1,0.55V-266.31z"/>
		<path class="st1" d="M-3166.39-245.46h-158.83v-60.94c0.01-10.81,4.2-21.18,11.66-28.83c7.46-7.65,17.57-11.95,28.11-11.96h116.38
			c5.8,0.01,11.37,2.37,15.47,6.58c4.1,4.21,6.41,9.91,6.41,15.86v59.65c-0.02,5.21-2.05,10.2-5.65,13.89
			C-3156.43-247.53-3161.31-245.46-3166.39-245.46z M-3304.75-266.45h137.07v-58.34c0-0.19-0.03-0.38-0.1-0.55
			c-0.07-0.18-0.17-0.33-0.3-0.47c-0.13-0.13-0.28-0.24-0.46-0.31c-0.17-0.07-0.35-0.11-0.54-0.1h-116.38
			c-2.54,0-5.05,0.52-7.39,1.51s-4.47,2.46-6.26,4.3c-1.79,1.84-3.21,4.03-4.18,6.43c-0.97,2.4-1.46,4.98-1.46,7.58V-266.45z"/>
		<path class="st1" d="M-3175.36-476.27h-67.37c-8.18-0.01-16.03-4.06-21.81-11.27c-5.79-7.21-9.04-16.97-9.05-27.17v-310.36
			c0.01-10.19,3.26-19.96,9.05-27.17c5.78-7.21,13.63-11.26,21.81-11.27h67.41c8.17,0.03,16.01,4.08,21.78,11.29
			c5.77,7.2,9.02,16.96,9.03,27.14v310.42c-0.02,10.18-3.28,19.93-9.06,27.12C-3159.35-480.33-3167.19-476.28-3175.36-476.27z
			 M-3242.73-837.34c-2.61,0.01-5.12,1.3-6.97,3.61c-1.85,2.3-2.89,5.43-2.89,8.68v310.42c0.01,3.25,1.05,6.37,2.89,8.67
			c1.85,2.3,4.35,3.59,6.96,3.6h67.41c2.61-0.01,5.11-1.3,6.96-3.6c1.85-2.3,2.89-5.42,2.89-8.67v-310.44
			c0-3.26-1.04-6.38-2.88-8.68c-1.85-2.3-4.35-3.6-6.97-3.61L-3242.73-837.34z"/>
		<path class="st1" d="M-3867.35-708.6v-180.71l516.3,2.77v177.94L-3610.35-739L-3867.35-708.6z M-3610.37-759.64l237.53,27.83
			v-134.38l-472.7-2.53v136.89L-3610.37-759.64z"/>
		<path class="st1" d="M-3402.67,91.67h-387.23v-206.52h387.23V91.67z M-3766.65,64.62h340.74V-87.81h-340.74V64.62z"/>
		<path class="st5" d="M-3617.84-233.38v-419.66h25.43v419.66H-3617.84z"/>
	</g>
</g>
<g>
	<path class="st3" d="M5734.42,349.6h442.82c7.22,0,9.63-7.74,9.63-10.33s2.41-10.33-4.81-12.91L5804.22,60.44
		c2.41-7.75,2.41-15.49,4.81-25.82l382.66,271.09c12.03,7.74,16.85,25.82,14.44,41.31c-2.41,18.07-14.44,28.4-26.47,28.4h-450.04
		C5732.02,367.67,5734.42,357.35,5734.42,349.6z"/>
	<path class="st6" d="M6104.49,247.26l-66.78,85.69c-11.51,14.69-29.94,9.79-36.84-12.24l-52.96-166.48
		c-6.91-19.59-25.33-24.48-34.54-4.9l-92.11,173.82c-9.21,19.59-29.94,17.14-39.15-2.45l-18.42-46.52"/>
	<path class="st6" d="M4843.53,247.26l70.12,85.69c12.09,14.69,31.43,9.79,38.68-12.24l55.61-166.48
		c7.25-19.59,26.6-24.48,36.27-4.9l96.71,173.82c9.67,19.59,31.43,17.14,41.1-2.45l19.34-46.52"/>
	<path class="st7" d="M5812.53,77.22l-79.63,275.65c-2.57,12.53-12.84,22.55-25.69,22.55h-470.1c-10.28,0-20.55-10.02-25.69-22.55
		l-77.06-275.65c-5.14-20.05,7.71-42.6,25.69-42.6h629.37C5807.39,34.62,5820.23,57.17,5812.53,77.22z"/>
	<path class="st8" d="M6052.84,409.5h120.33c9.44,0,16.51-6.01,16.51-14.03v-6.02c0-8.02-7.08-14.03-16.51-14.03h-120.33
		c-9.44,0-16.52,6.01-16.52,14.03v6.02C6036.33,403.49,6043.41,409.5,6052.84,409.5z"/>
	<path class="st6" d="M5678.49,136.86h-426"/>
	<path class="st7" d="M5734.22,387.31l27.91,59.44c5.07,14.27-2.54,30.91-17.76,30.91h-522.64c-15.22,0-25.37-16.64-17.76-30.91
		l32.98-61.82c2.54-7.13,10.15-9.51,17.76-9.51h461.75C5724.07,375.42,5729.14,380.18,5734.22,387.31z"/>
	<path class="st3" d="M5170.44,369.97h61.92c-2.48-7.37-2.48-14.75-4.95-24.58h-74.31C5160.53,352.77,5165.48,360.14,5170.44,369.97
		z"/>
	<path class="st3" d="M4821.18,345.39h-49.54c-7.43,0-9.91-7.37-9.91-9.83c0-2.46-2.48-9.83,4.95-12.29l388.89-253.19
		c-2.48-7.37-2.48-14.75-4.96-24.58l-393.84,258.1c-12.39,7.37-17.34,24.58-14.86,39.33c2.48,17.21,14.86,27.04,27.25,27.04h32.2
		C4806.32,360.14,4813.75,352.77,4821.18,345.39z"/>
	<path class="st3" d="M5034.2,345.39h-94.13c7.43,7.37,12.39,14.75,17.34,24.58h59.45C5021.82,360.14,5026.77,352.77,5034.2,345.39z
		"/>
	<path class="st9" d="M4869.09,511.74c51.76,0,93.72-41.96,93.72-93.72s-41.96-93.72-93.72-93.72c-51.76,0-93.72,41.96-93.72,93.72
		S4817.33,511.74,4869.09,511.74z"/>
	<path class="st9" d="M5099.13,511.74c47.05,0,85.2-41.96,85.2-93.72s-38.15-93.72-85.2-93.72c-47.05,0-85.2,41.96-85.2,93.72
		S5052.08,511.74,5099.13,511.74z"/>
	<path d="M5341.35,220.03h-12.38v-19.66h34.68v88.49h-22.29V220.03z"/>
	<path d="M5442.91,271.65c19.82-14.75,39.63-29.5,39.63-44.25c0-7.37-2.48-9.83-9.91-9.83c-4.95,0-9.91,4.92-9.91,12.29h-19.82
		c0-22.12,14.86-29.5,29.72-29.5c19.82,0,29.72,12.29,29.72,27.04c0,19.66-17.34,34.41-32.2,44.25h32.2v17.21h-61.92L5442.91,271.65
		z"/>
	<path d="M5596.48,197.9c19.82,0,29.72,9.83,29.72,24.58c0,12.29-7.43,17.21-12.39,19.66c9.91,2.46,14.86,9.83,14.86,22.12
		c0,14.75-9.91,24.58-29.72,24.58c-17.34,0-32.2-9.83-32.2-29.5h19.82c0,7.37,4.95,12.29,12.38,12.29s9.91-4.92,9.91-9.83
		c0-7.37-4.95-9.83-14.86-9.83h-4.95v-17.21h4.95c7.43,0,14.86-2.46,14.86-9.83c0-4.92-2.48-9.83-9.91-9.83s-9.91,4.92-9.91,9.83
		h-19.82C5569.24,207.74,5579.14,197.9,5596.48,197.9z"/>
</g>
<g>
	<path class="st3" d="M5765.31,984.02h480.87c7.84,0,10.45-8.41,10.45-11.21s2.61-11.22-5.23-14.02l-410.3-288.77
		c2.61-8.41,2.61-16.82,5.23-28.04l415.53,294.38c13.07,8.41,18.29,28.04,15.68,44.86c-2.61,19.63-15.68,30.84-28.75,30.84h-488.71
		C5762.7,1003.65,5765.31,992.43,5765.31,984.02z"/>
	<path class="st10" d="M6167.17,872.88l-72.51,93.05c-12.5,15.95-32.51,10.63-40.01-13.29l-57.51-180.78
		c-7.5-21.27-27.51-26.59-37.51-5.32L5859.61,955.3c-10,21.27-32.51,18.61-42.51-2.66l-20-50.51"/>
	<path class="st10" d="M4797.89,872.88l76.14,93.05c13.13,15.95,34.13,10.63,42.01-13.29l60.39-180.78
		c7.88-21.27,28.88-26.59,39.38-5.32l105.02,188.75c10.5,21.27,34.13,18.61,44.63-2.66l21-50.51"/>
	<path class="st7" d="M5850.13,688.24l-86.48,299.33c-2.79,13.61-13.95,24.49-27.89,24.49h-510.48c-11.16,0-22.32-10.88-27.9-24.49
		l-83.69-299.33c-5.58-21.77,8.37-46.26,27.89-46.26h683.43C5844.55,641.98,5858.5,666.47,5850.13,688.24z"/>
	<path class="st11" d="M6111.09,1049.07h130.67c10.25,0,17.93-6.53,17.93-15.24v-6.53c0-8.71-7.69-15.24-17.93-15.24h-130.67
		c-10.25,0-17.93,6.53-17.93,15.24v6.53C6093.16,1042.54,6100.84,1049.07,6111.09,1049.07z"/>
	<path class="st10" d="M5704.58,753h-462.6"/>
	<path class="st7" d="M5765.09,1024.97l30.31,64.55c5.51,15.49-2.76,33.57-19.28,33.57h-567.55c-16.53,0-27.55-18.07-19.28-33.57
		l35.82-67.13c2.76-7.75,11.02-10.33,19.28-10.33h501.42C5754.07,1012.06,5759.58,1017.22,5765.09,1024.97z"/>
	<path class="st3" d="M5152.88,1006.14h67.25c-2.69-8.01-2.69-16.02-5.38-26.69h-80.69
		C5142.12,987.46,5147.5,995.47,5152.88,1006.14z"/>
	<path class="st3" d="M4773.61,979.45h-53.8c-8.07,0-10.76-8.01-10.76-10.68c0-2.67-2.69-10.68,5.38-13.35l422.3-274.94
		c-2.69-8.01-2.69-16.02-5.38-26.69l-427.68,280.28c-13.45,8.01-18.83,26.69-16.14,42.71c2.69,18.69,16.14,29.36,29.59,29.36h34.97
		C4757.47,995.47,4765.54,987.46,4773.61,979.45z"/>
	<path class="st3" d="M5004.94,979.45h-102.21c8.07,8.01,13.45,16.02,18.83,26.69h64.56
		C4991.49,995.47,4996.87,987.46,5004.94,979.45z"/>
	<path class="st12" d="M4825.65,1160.09c56.21,0,101.77-45.56,101.77-101.77c0-56.21-45.56-101.77-101.77-101.77
		c-56.21,0-101.77,45.56-101.77,101.77C4723.87,1114.52,4769.44,1160.09,4825.65,1160.09z"/>
	<path class="st12" d="M5075.45,1160.09c51.1,0,92.52-45.56,92.52-101.77c0-56.21-41.42-101.77-92.52-101.77
		c-51.1,0-92.52,45.56-92.52,101.77C4982.93,1114.52,5024.35,1160.09,5075.45,1160.09z"/>
	<path class="st1" d="M5338.47,843.32h-13.45v-21.35h37.66v96.09h-24.21V843.32z"/>
	<path class="st1" d="M5448.76,899.37c21.52-16.02,43.04-32.03,43.04-48.05c0-8.01-2.69-10.68-10.76-10.68
		c-5.38,0-10.76,5.34-10.76,13.34h-21.52c0-24.02,16.14-32.03,32.28-32.03c21.52,0,32.28,13.34,32.28,29.36
		c0,21.35-18.83,37.37-34.97,48.05h34.97v18.69h-67.24L5448.76,899.37z"/>
	<path class="st1" d="M5615.52,819.29c21.52,0,32.28,10.68,32.28,26.69c0,13.35-8.07,18.69-13.45,21.35
		c10.76,2.67,16.14,10.68,16.14,24.02c0,16.02-10.76,26.69-32.28,26.69c-18.83,0-34.97-10.68-34.97-32.03h21.52
		c0,8.01,5.38,13.35,13.45,13.35s10.76-5.34,10.76-10.68c0-8.01-5.38-10.68-16.14-10.68h-5.38v-18.68h5.38
		c8.07,0,16.14-2.67,16.14-10.68c0-5.34-2.69-10.68-10.76-10.68s-10.76,5.34-10.76,10.68h-21.52
		C5585.94,829.97,5596.7,819.29,5615.52,819.29z"/>
</g>
<g>
	<circle cx="-3609.23" cy="1699.23" r="960.26"/>
	<g>
		<path class="st3" d="M-3326.44,1782.21h480.87c7.84,0,10.45-8.41,10.45-11.21s2.61-11.22-5.23-14.02l-410.3-288.77
			c2.61-8.41,2.61-16.82,5.23-28.04l415.53,294.38c13.07,8.41,18.29,28.04,15.68,44.86c-2.61,19.63-15.68,30.84-28.75,30.84h-488.71
			C-3329.06,1801.84-3326.44,1790.63-3326.44,1782.21z"/>
		<path class="st10" d="M-2924.58,1671.08l-72.51,93.05c-12.5,15.95-32.51,10.63-40.01-13.29l-57.51-180.78
			c-7.5-21.27-27.51-26.59-37.51-5.32l-100.02,188.75c-10,21.27-32.51,18.61-42.51-2.66l-20-50.51"/>
		<path class="st10" d="M-4293.87,1671.08l76.14,93.05c13.13,15.95,34.13,10.63,42.01-13.29l60.39-180.78
			c7.88-21.27,28.88-26.59,39.38-5.32l105.02,188.75c10.5,21.27,34.13,18.61,44.64-2.66l21-50.51"/>
		<path class="st7" d="M-3241.63,1486.43l-86.48,299.33c-2.79,13.61-13.95,24.49-27.89,24.49h-510.48
			c-11.16,0-22.32-10.88-27.9-24.49l-83.69-299.33c-5.58-21.77,8.37-46.26,27.89-46.26h683.43
			C-3247.21,1440.17-3233.26,1464.67-3241.63,1486.43z"/>
		<path class="st11" d="M-2980.67,1847.26H-2850c10.25,0,17.93-6.53,17.93-15.24v-6.53c0-8.71-7.69-15.24-17.93-15.24h-130.67
			c-10.25,0-17.93,6.53-17.93,15.24v6.53C-2998.6,1840.73-2990.91,1847.26-2980.67,1847.26z"/>
		<path class="st10" d="M-3387.18,1551.2h-462.6"/>
		<path class="st7" d="M-3326.67,1823.16l30.31,64.55c5.51,15.49-2.76,33.57-19.28,33.57h-567.55c-16.53,0-27.55-18.07-19.28-33.57
			l35.82-67.13c2.76-7.75,11.02-10.33,19.28-10.33h501.42C-3337.69,1810.25-3332.18,1815.42-3326.67,1823.16z"/>
		<path class="st3" d="M-3938.88,1804.34h67.24c-2.69-8.01-2.69-16.02-5.38-26.69h-80.7
			C-3949.64,1785.65-3944.26,1793.66-3938.88,1804.34z"/>
		<path class="st3" d="M-4318.14,1777.64h-53.8c-8.07,0-10.76-8.01-10.76-10.68c0-2.67-2.69-10.68,5.38-13.35l422.3-274.94
			c-2.69-8.01-2.69-16.02-5.38-26.69l-427.68,280.28c-13.45,8.01-18.83,26.69-16.14,42.71c2.69,18.69,16.14,29.36,29.59,29.36h34.97
			C-4334.28,1793.66-4326.21,1785.65-4318.14,1777.64z"/>
		<path class="st3" d="M-4086.82,1777.64h-102.21c8.07,8.01,13.45,16.02,18.83,26.69h64.56
			C-4100.27,1793.66-4094.89,1785.65-4086.82,1777.64z"/>
		<path class="st12" d="M-4266.11,1958.28c56.21,0,101.77-45.56,101.77-101.77c0-56.21-45.56-101.77-101.77-101.77
			c-56.21,0-101.77,45.56-101.77,101.77C-4367.88,1912.72-4322.32,1958.28-4266.11,1958.28z"/>
		<path class="st12" d="M-4016.31,1958.28c51.1,0,92.52-45.56,92.52-101.77c0-56.21-41.42-101.77-92.52-101.77
			s-92.52,45.56-92.52,101.77C-4108.83,1912.72-4067.41,1958.28-4016.31,1958.28z"/>
		<path class="st1" d="M-3753.28,1641.51h-13.45v-21.35h37.66v96.09h-24.21V1641.51z"/>
		<path class="st1" d="M-3643,1697.56c21.52-16.02,43.04-32.03,43.04-48.05c0-8.01-2.69-10.68-10.76-10.68
			c-5.38,0-10.76,5.34-10.76,13.34H-3643c0-24.02,16.14-32.03,32.28-32.03c21.52,0,32.28,13.34,32.28,29.36
			c0,21.35-18.83,37.37-34.97,48.05h34.97v18.69h-67.24L-3643,1697.56z"/>
		<path class="st1" d="M-3476.23,1617.49c21.52,0,32.28,10.68,32.28,26.69c0,13.35-8.07,18.69-13.45,21.35
			c10.76,2.67,16.14,10.68,16.14,24.02c0,16.02-10.76,26.69-32.28,26.69c-18.83,0-34.97-10.68-34.97-32.03h21.52
			c0,8.01,5.38,13.35,13.45,13.35c8.07,0,10.76-5.34,10.76-10.68c0-8.01-5.38-10.68-16.14-10.68h-5.38v-18.68h5.38
			c8.07,0,16.14-2.67,16.14-10.68c0-5.34-2.69-10.68-10.76-10.68c-8.07,0-10.76,5.34-10.76,10.68h-21.52
			C-3505.82,1628.16-3495.06,1617.49-3476.23,1617.49z"/>
	</g>
</g>
<g>
	<circle cx="1000" cy="1012.06" r="960.26"/>
	<g>
		<path class="st3" d="M1282.78,1095.04h480.87c7.84,0,10.45-8.41,10.45-11.21c0-2.8,2.61-11.22-5.23-14.02l-410.3-288.77
			c2.61-8.41,2.61-16.82,5.23-28.04l415.53,294.38c13.07,8.41,18.29,28.04,15.68,44.86c-2.61,19.63-15.68,30.84-28.75,30.84h-488.71
			C1280.17,1114.67,1282.78,1103.46,1282.78,1095.04z"/>
		<path class="st10" d="M1684.64,983.91l-72.51,93.05c-12.5,15.95-32.51,10.63-40.01-13.29l-57.51-180.78
			c-7.5-21.27-27.51-26.59-37.51-5.32l-100.02,188.75c-10,21.27-32.51,18.61-42.51-2.66l-20-50.51"/>
		<path class="st10" d="M315.36,983.91l76.14,93.05c13.13,15.95,34.13,10.63,42.01-13.29l60.39-180.78
			c7.88-21.27,28.88-26.59,39.38-5.32l105.02,188.75c10.5,21.27,34.13,18.61,44.63-2.66l21-50.51"/>
		<path class="st7" d="M1367.6,799.26l-86.48,299.33c-2.79,13.61-13.95,24.49-27.89,24.49H742.75c-11.16,0-22.32-10.88-27.9-24.49
			l-83.69-299.33c-5.58-21.77,8.37-46.26,27.89-46.26h683.43C1362.02,753,1375.97,777.49,1367.6,799.26z"/>
		<path class="st11" d="M1628.56,1160.09h130.67c10.25,0,17.93-6.53,17.93-15.24v-6.53c0-8.71-7.69-15.24-17.93-15.24h-130.67
			c-10.25,0-17.93,6.53-17.93,15.24v6.53C1610.63,1153.56,1618.31,1160.09,1628.56,1160.09z"/>
		<path class="st10" d="M1222.05,864.03h-462.6"/>
		<path class="st7" d="M1282.56,1135.99l30.31,64.55c5.51,15.49-2.76,33.57-19.28,33.57H726.03c-16.53,0-27.55-18.07-19.28-33.57
			l35.82-67.13c2.76-7.75,11.02-10.33,19.28-10.33h501.42C1271.54,1123.08,1277.05,1128.24,1282.56,1135.99z"/>
		<path class="st3" d="M670.35,1117.17h67.24c-2.69-8.01-2.69-16.02-5.38-26.69h-80.7C659.59,1098.48,664.97,1106.49,670.35,1117.17
			z"/>
		<path class="st3" d="M291.08,1090.47h-53.8c-8.07,0-10.76-8.01-10.76-10.68c0-2.67-2.69-10.68,5.38-13.35l422.3-274.94
			c-2.69-8.01-2.69-16.02-5.38-26.69L221.15,1045.1c-13.45,8.01-18.83,26.69-16.14,42.71c2.69,18.69,16.14,29.36,29.59,29.36h34.97
			C274.94,1106.49,283.01,1098.48,291.08,1090.47z"/>
		<path class="st3" d="M522.41,1090.47H420.19c8.07,8.01,13.45,16.02,18.83,26.69h64.56
			C508.96,1106.49,514.34,1098.48,522.41,1090.47z"/>
		<path class="st12" d="M343.11,1271.11c56.21,0,101.77-45.56,101.77-101.77s-45.56-101.77-101.77-101.77
			c-56.21,0-101.77,45.56-101.77,101.77S286.91,1271.11,343.11,1271.11z"/>
		<path class="st12" d="M592.92,1271.11c51.1,0,92.52-45.56,92.52-101.77s-41.42-101.77-92.52-101.77s-92.52,45.56-92.52,101.77
			S541.82,1271.11,592.92,1271.11z"/>
		<path class="st1" d="M855.94,954.34h-13.45v-21.35h37.66v96.09h-24.21V954.34z"/>
		<path class="st1" d="M966.23,1010.39c21.52-16.02,43.04-32.03,43.04-48.05c0-8.01-2.69-10.68-10.76-10.68
			c-5.38,0-10.76,5.34-10.76,13.34h-21.52c0-24.02,16.14-32.03,32.28-32.03c21.52,0,32.28,13.34,32.28,29.36
			c0,21.35-18.83,37.37-34.97,48.05h34.97v18.69h-67.24L966.23,1010.39z"/>
		<path class="st1" d="M1132.99,930.32c21.52,0,32.28,10.68,32.28,26.69c0,13.35-8.07,18.69-13.45,21.35
			c10.76,2.67,16.14,10.68,16.14,24.02c0,16.02-10.76,26.69-32.28,26.69c-18.83,0-34.97-10.68-34.97-32.03h21.52
			c0,8.01,5.38,13.35,13.45,13.35c8.07,0,10.76-5.34,10.76-10.68c0-8.01-5.38-10.68-16.14-10.68h-5.38v-18.68h5.38
			c8.07,0,16.14-2.67,16.14-10.68c0-5.34-2.69-10.68-10.76-10.68c-8.07,0-10.76,5.34-10.76,10.68h-21.52
			C1103.41,940.99,1114.16,930.32,1132.99,930.32z"/>
	</g>
</g>
<g>
	<path class="st13" d="M4975.16-1326.07l100.07,0.54l242.1,1.36l291.57,1.63l252.31,1.42l83.73,0.48c13.07,0,26.75,1.36,39.79,0.21
		c0.56,0,1.18,0,1.77,0c12.86,0,12.86-20.44,0-20.53l-100.07-0.54l-242.01-1.48l-291.57-1.63l-252.31-1.39l-83.73-0.45
		c-13.07,0-26.78-1.39-39.82-0.24c-0.58,0.03-1.16,0.03-1.74,0c-12.86,0-12.89,20.45,0,20.54L4975.16-1326.07z"/>
	<path class="st13" d="M4973.87-1505.27h66.57c15.27,0,15.27-24.38,0-24.38h-66.57C4958.59-1529.64,4958.57-1505.27,4973.87-1505.27
		z"/>
	<path class="st13" d="M4973.87-1436.73h66.57c15.27,0,15.27-24.41,0-24.41h-66.57C4958.59-1461.14,4958.57-1436.73,4973.87-1436.73
		z"/>
	<path class="st14" d="M5962.37-1361.46h-930.55c-18.24-0.05-35.73-7.52-48.62-20.77s-20.17-31.22-20.21-49.97v-178.92
		c0.01-3.36,1.31-6.58,3.62-8.95c2.31-2.37,5.44-3.71,8.71-3.72h924.72c1.3-0.03,2.55-0.56,3.5-1.47c0.95-0.91,1.54-2.16,1.65-3.49
		l0.91-10.16c0.12-1.33,0.71-2.57,1.66-3.48c0.95-0.91,2.2-1.43,3.49-1.45l81.67-2.06c0.71-0.02,1.41,0.11,2.06,0.38
		c0.66,0.27,1.25,0.66,1.76,1.17c0.5,0.51,0.91,1.11,1.18,1.78c0.27,0.67,0.42,1.39,0.42,2.11v241.95
		c-0.04,9.8-3.84,19.18-10.57,26.12C5981.03-1365.45,5971.91-1361.52,5962.37-1361.46L5962.37-1361.46z"/>
	<path class="st6" d="M5284.22-1154.68c41.85,0,75.78-34.87,75.78-77.88s-33.93-77.88-75.78-77.88c-41.86,0-75.79,34.87-75.79,77.88
		S5242.37-1154.68,5284.22-1154.68z"/>
	<path class="st6" d="M5099.45-1154.68c41.86,0,75.79-34.87,75.79-77.88s-33.93-77.88-75.79-77.88c-41.85,0-75.78,34.87-75.78,77.88
		S5057.6-1154.68,5099.45-1154.68z"/>
	<path class="st13" d="M5933.06-1324.83v149.35c0,19.02,28.78,19.05,28.78,0v-149.35
		C5961.84-1343.88,5933.06-1343.92,5933.06-1324.83z"/>
	<path class="st13" d="M5352.12-1510.8h-12.6v-20.75h35.32v95.27h-22.6L5352.12-1510.8z"/>
	<path class="st13" d="M5460.01-1454.15c19.69-16.72,40.64-33.27,40.64-49.33c0-6.93-2.94-11.37-9.65-11.37
		c-6.71,0-10.27,5.23-10.27,14.24h-20.96c0.62-23.11,15.22-33.03,32.11-33.03c21.1,0,30.49,12.64,30.49,28.7
		c0,20.9-18.16,37.59-32.9,49.21h34.32v18.15h-63.78V-1454.15z"/>
	<path class="st13" d="M5621.5-1533.79c19.54,0,30.11,11.49,30.11,25.86c0.22,4.64-1.03,9.22-3.55,13.08
		c-2.52,3.86-6.18,6.78-10.44,8.33v0.51c9.27,3.02,15.63,10.44,15.63,22.96c0,16.06-11.18,27.55-30.61,27.55
		c-19.42,0-33.29-9.41-33.9-30.94h21.07c0,7.44,4.06,12.4,12.07,12.4c1.4,0.11,2.8-0.09,4.11-0.58c1.31-0.5,2.51-1.28,3.5-2.3
		c0.99-1.02,1.75-2.24,2.24-3.6c0.48-1.35,0.68-2.79,0.57-4.23c0-8.47-4.97-11.86-16.28-11.86h-4.06v-18.15h4.06
		c7.39,0,14.48-1.85,14.48-10.44c0.13-1.32-0.03-2.66-0.46-3.91c-0.43-1.25-1.13-2.39-2.03-3.34c-0.91-0.95-2-1.68-3.22-2.14
		c-1.21-0.46-2.51-0.65-3.79-0.54c-7,0-9.54,5.2-9.92,10.43h-21.22C5590.63-1523.47,5602.58-1533.79,5621.5-1533.79z"/>
</g>
<g>
	<path class="st15" d="M4819.53-532.11l133.15,0.72l322.15,1.81l387.98,2.17l335.74,1.89l111.42,0.64c17.39,0,35.6,1.81,52.95,0.28
		c0.74,0,1.57,0,2.35,0c17.11,0,17.11-27.2,0-27.32l-133.15-0.72l-322.03-1.97l-387.98-2.17l-335.74-1.85l-111.42-0.6
		c-17.39,0-35.64-1.85-52.99-0.32c-0.77,0.04-1.54,0.04-2.31,0c-17.11,0-17.15,27.21,0,27.33L4819.53-532.11z"/>
	<path class="st16" d="M4817.81-770.56h88.58c20.33,0,20.33-32.44,0-32.44h-88.58C4797.49-802.99,4797.45-770.56,4817.81-770.56z"/>
	<path class="st16" d="M4817.81-679.36h88.58c20.33,0,20.33-32.48,0-32.48h-88.58C4797.49-711.84,4797.45-679.36,4817.81-679.36z"/>
	<path class="st14" d="M6133.16-579.2H4894.92c-24.27-0.06-47.54-10-64.7-27.64s-26.84-41.54-26.9-66.49v-238.08
		c0.01-4.47,1.74-8.75,4.82-11.91c3.07-3.16,7.24-4.94,11.59-4.95h1230.48c1.73-0.04,3.39-0.74,4.65-1.96
		c1.26-1.22,2.05-2.87,2.2-4.64l1.21-13.52c0.15-1.77,0.94-3.42,2.2-4.63c1.27-1.21,2.92-1.9,4.65-1.93l108.67-2.74
		c0.94-0.02,1.87,0.15,2.75,0.5c0.87,0.35,1.67,0.88,2.34,1.56c0.67,0.67,1.21,1.48,1.57,2.37c0.37,0.89,0.55,1.84,0.55,2.81v321.95
		c-0.05,13.04-5.11,25.53-14.07,34.76C6157.98-584.5,6145.84-579.28,6133.16-579.2L6133.16-579.2z"/>
	<path class="st10" d="M5230.78-304.05c55.69,0,100.84-46.4,100.84-103.63s-45.15-103.63-100.84-103.63
		c-55.7,0-100.84,46.39-100.84,103.63S5175.08-304.05,5230.78-304.05z"/>
	<path class="st10" d="M4984.92-304.05c55.7,0,100.84-46.4,100.84-103.63s-45.15-103.63-100.84-103.63
		c-55.69,0-100.84,46.39-100.84,103.63S4929.22-304.05,4984.92-304.05z"/>
	<path class="st15" d="M6094.15-530.46v198.73c0,25.31,38.3,25.35,38.3,0v-198.73C6132.45-555.81,6094.15-555.85,6094.15-530.46z"/>
	<path class="st15" d="M5321.12-777.92h-16.76v-27.61h46.99v126.77h-30.08L5321.12-777.92z"/>
	<path class="st15" d="M5464.69-702.54c26.2-22.25,54.08-44.27,54.08-65.64c0-9.22-3.92-15.13-12.85-15.13
		c-8.93,0-13.67,6.96-13.67,18.95h-27.88c0.82-30.75,20.25-43.95,42.73-43.95c28.08,0,40.57,16.82,40.57,38.19
		c0,27.81-24.16,50.02-43.79,65.48h45.66v24.15h-84.86V-702.54z"/>
	<path class="st15" d="M5679.58-808.51c26,0,40.06,15.29,40.06,34.41c0.29,6.17-1.37,12.27-4.72,17.41s-8.22,9.02-13.89,11.09v0.68
		c12.34,4.02,20.79,13.89,20.79,30.55c0,21.37-14.88,36.66-40.73,36.66c-25.85,0-44.29-12.52-45.11-41.17h28.04
		c0,9.9,5.4,16.5,16.06,16.5c1.86,0.15,3.73-0.11,5.47-0.78c1.75-0.66,3.34-1.71,4.66-3.06c1.32-1.35,2.33-2.99,2.98-4.78
		c0.64-1.8,0.9-3.72,0.75-5.62c0-11.27-6.62-15.78-21.66-15.78h-5.4v-24.15h5.4c9.83,0,19.27-2.46,19.27-13.89
		c0.17-1.76-0.04-3.53-0.62-5.2c-0.58-1.67-1.5-3.18-2.7-4.44c-1.21-1.26-2.67-2.23-4.28-2.85c-1.61-0.62-3.34-0.86-5.05-0.72
		c-9.32,0-12.69,6.92-13.2,13.88h-28.24C5638.5-794.78,5654.4-808.51,5679.58-808.51z"/>
</g>
<g>
	<circle cx="-3645.69" cy="3770.39" r="960.26"/>
	<g>
		<path class="st15" d="M-4307.73,3930.95l133.15,0.72l322.15,1.81l387.98,2.17l335.74,1.89l111.42,0.64
			c17.39,0,35.6,1.81,52.95,0.28c0.74,0,1.57,0,2.35,0c17.11,0,17.11-27.2,0-27.32l-133.15-0.72l-322.03-1.97l-387.98-2.17
			l-335.74-1.85l-111.42-0.6c-17.39,0-35.64-1.85-52.99-0.32c-0.77,0.04-1.54,0.04-2.31,0c-17.11,0-17.15,27.21,0,27.33
			L-4307.73,3930.95z"/>
		<path class="st16" d="M-4309.45,3692.51h88.58c20.33,0,20.33-32.44,0-32.44h-88.58
			C-4329.78,3660.07-4329.82,3692.51-4309.45,3692.51z"/>
		<path class="st16" d="M-4309.45,3783.7h88.58c20.33,0,20.33-32.48,0-32.48h-88.58C-4329.78,3751.22-4329.82,3783.7-4309.45,3783.7
			z"/>
		<path class="st14" d="M-2994.11,3883.87h-1238.23c-24.27-0.06-47.54-10-64.7-27.64c-17.17-17.64-26.84-41.54-26.9-66.49v-238.08
			c0.01-4.47,1.74-8.75,4.82-11.91c3.08-3.16,7.24-4.94,11.59-4.95h1230.48c1.73-0.04,3.39-0.74,4.65-1.96
			c1.26-1.22,2.05-2.87,2.2-4.64l1.21-13.52c0.16-1.77,0.94-3.42,2.2-4.63c1.27-1.21,2.92-1.9,4.65-1.93l108.67-2.74
			c0.94-0.02,1.87,0.15,2.75,0.5c0.87,0.35,1.67,0.88,2.34,1.56s1.2,1.48,1.57,2.37c0.36,0.89,0.55,1.84,0.55,2.81v321.95
			c-0.05,13.04-5.11,25.53-14.07,34.76S-2981.42,3883.78-2994.11,3883.87L-2994.11,3883.87z"/>
		<path class="st10" d="M-3896.49,4159.02c55.69,0,100.84-46.4,100.84-103.63s-45.15-103.63-100.84-103.63
			c-55.7,0-100.84,46.39-100.84,103.63S-3952.18,4159.02-3896.49,4159.02z"/>
		<path class="st10" d="M-4142.35,4159.02c55.7,0,100.84-46.4,100.84-103.63s-45.15-103.63-100.84-103.63
			c-55.69,0-100.84,46.39-100.84,103.63S-4198.04,4159.02-4142.35,4159.02z"/>
		<path class="st15" d="M-3033.12,3932.6v198.73c0,25.31,38.3,25.35,38.3,0V3932.6C-2994.82,3907.25-3033.12,3907.21-3033.12,3932.6
			z"/>
		<path class="st15" d="M-3806.14,3685.14h-16.76v-27.61h46.99v126.77h-30.07L-3806.14,3685.14z"/>
		<path class="st15" d="M-3662.57,3760.52c26.2-22.25,54.08-44.27,54.08-65.64c0-9.22-3.92-15.13-12.85-15.13
			c-8.93,0-13.67,6.96-13.67,18.95h-27.88c0.82-30.75,20.25-43.95,42.73-43.95c28.08,0,40.57,16.82,40.57,38.19
			c0,27.81-24.16,50.02-43.79,65.48h45.66v24.15h-84.86V3760.52z"/>
		<path class="st15" d="M-3447.69,3654.56c26,0,40.06,15.29,40.06,34.41c0.29,6.17-1.37,12.27-4.72,17.41s-8.22,9.02-13.89,11.09
			v0.68c12.34,4.02,20.79,13.89,20.79,30.55c0,21.37-14.88,36.66-40.73,36.66c-25.85,0-44.29-12.52-45.11-41.17h28.04
			c0,9.9,5.4,16.5,16.06,16.5c1.86,0.15,3.73-0.11,5.47-0.78c1.75-0.66,3.34-1.71,4.66-3.06c1.32-1.35,2.33-2.99,2.98-4.78
			c0.64-1.8,0.9-3.72,0.75-5.62c0-11.27-6.62-15.78-21.66-15.78h-5.4v-24.15h5.4c9.83,0,19.27-2.46,19.27-13.89
			c0.17-1.76-0.04-3.53-0.62-5.2c-0.57-1.67-1.5-3.18-2.7-4.44c-1.21-1.26-2.67-2.23-4.28-2.85c-1.61-0.62-3.34-0.86-5.05-0.72
			c-9.32,0-12.69,6.92-13.2,13.88h-28.24C-3488.77,3668.28-3472.87,3654.56-3447.69,3654.56z"/>
	</g>
</g>
<g>
	<path class="st13" d="M5724.08-2974.78v119.58c0,3.16,1.27,6.18,3.54,8.42s5.34,3.49,8.54,3.49s6.27-1.25,8.54-3.49
		s3.54-5.26,3.54-8.42v-119.58c0-3.16-1.27-6.18-3.54-8.42c-2.26-2.23-5.34-3.49-8.54-3.49s-6.27,1.25-8.54,3.49
		C5725.36-2980.96,5724.08-2977.93,5724.08-2974.78z"/>
	<path class="st6" d="M5189.36-2828.85c34.81,0,63.04-27.92,63.04-62.37c0-34.44-28.22-62.37-63.04-62.37
		c-34.81,0-63.04,27.92-63.04,62.37C5126.32-2856.77,5154.55-2828.85,5189.36-2828.85z"/>
	<path class="st6" d="M5035.6-2828.85c34.81,0,63.04-27.92,63.04-62.37c0-34.44-28.22-62.37-63.04-62.37
		c-34.81,0-63.04,27.92-63.04,62.37C4972.56-2856.77,5000.78-2828.85,5035.6-2828.85z"/>
	<path class="st3" d="M5786.72-3071.9h-2.58c-6.98,0-12.64,5.58-12.64,12.46v72.13c0,6.88,5.66,12.46,12.64,12.46h2.58
		c6.98,0,12.64-5.58,12.64-12.46v-72.13C5799.36-3066.32,5793.7-3071.9,5786.72-3071.9z"/>
	<path class="st3" d="M5942.02-3053.73c5.82,0,10.55-4.65,10.55-10.39s-4.72-10.4-10.55-10.4h-160.05c-5.83,0-10.55,4.65-10.55,10.4
		s4.72,10.39,10.55,10.39H5942.02z"/>
	<path class="st17" d="M5786.8-2990.49l-705.23-3.57l-99.83-0.56c-1.75,0.02-3.45,0.61-4.83,1.67c-0.92,0.45-1.74,1.07-2.42,1.82
		c-29.22,31.74-57.64,64.51-87.83,95.22c-7.41,7.94,4.35,19.36,11.75,11.67c29.55-30.47,57.64-62.21,86.54-93.95l702.18,3.81
		l99.75,0.48c2.23-0.01,4.37-0.89,5.94-2.46c1.57-1.56,2.45-3.68,2.44-5.88c-0.01-2.2-0.91-4.3-2.49-5.85
		C5791.17-2989.64,5789.03-2990.5,5786.8-2990.49z"/>
	<path class="st13" d="M5283.55-3106.74h-10.47v-16.58h29.3v76.26h-18.84V-3106.74z"/>
	<path class="st13" d="M5373.32-3061.35c16.1-13.41,33.81-26.66,33.81-39.68c0-5.55-2.49-9.13-8.05-9.13
		c-5.55,0-8.53,4.21-8.53,11.43h-17.39c-0.25-3.53,0.27-7.07,1.53-10.39c1.25-3.32,3.21-6.33,5.74-8.84
		c2.53-2.51,5.58-4.46,8.93-5.71c3.36-1.26,6.95-1.79,10.53-1.57c17.55,0,25.36,10.16,25.36,23.01c0,16.74-15.13,30.15-27.37,39.68
		h28.5v14.52h-53.05V-3061.35z"/>
	<path class="st13" d="M5507.68-3125.15c16.1,0,25.04,9.2,25.04,20.71c0.19,3.7-0.84,7.37-2.93,10.46
		c-2.09,3.09-5.13,5.43-8.67,6.68v0.4c3.96,1.16,7.4,3.62,9.76,6.96c2.36,3.35,3.49,7.38,3.2,11.45c0,12.85-9.26,22.06-25.44,22.06
		s-27.69-7.94-28.26-24.76h17.55c-0.12,1.33,0.05,2.68,0.51,3.94c0.46,1.26,1.2,2.4,2.16,3.35c0.96,0.95,2.12,1.67,3.4,2.13
		c1.28,0.46,2.64,0.63,3.99,0.51c1.16,0.08,2.32-0.08,3.41-0.48c1.09-0.4,2.08-1.03,2.9-1.85c0.82-0.81,1.45-1.79,1.85-2.87
		c0.4-1.08,0.55-2.23,0.46-3.37c0-6.82-4.11-9.52-13.53-9.52h-3.38v-14.52h3.38c6.2,0,12.08-1.43,12.08-7.94
		c0.11-1.07-0.02-2.15-0.38-3.16c-0.36-1.01-0.95-1.93-1.72-2.7c-0.77-0.76-1.71-1.34-2.73-1.7c-1.03-0.36-2.13-0.49-3.21-0.38
		c-2.13,0-4.18,0.84-5.69,2.32c-1.51,1.49-2.36,3.51-2.36,5.61h-17.63C5482-3116.89,5492.14-3125.15,5507.68-3125.15z"/>
	<path class="st3" d="M5928.33-3063.65v37.29c0.24,2.9,1.58,5.6,3.75,7.57c2.17,1.97,5.01,3.06,7.96,3.06s5.79-1.09,7.96-3.06
		c2.17-1.97,3.51-4.67,3.75-7.57v-37.29c-0.24-2.9-1.58-5.6-3.75-7.57c-2.17-1.97-5.01-3.06-7.96-3.06s-5.79,1.09-7.96,3.06
		C5929.91-3069.25,5928.57-3066.55,5928.33-3063.65z"/>
</g>
<g>
	<path class="st16" d="M5918.29-2440.01v174.84c0,4.62,1.86,9.04,5.17,12.31c3.31,3.26,7.8,5.1,12.48,5.1
		c4.68,0,9.17-1.83,12.48-5.1c3.31-3.26,5.17-7.69,5.17-12.31v-174.84c0-4.61-1.86-9.04-5.17-12.3c-3.31-3.26-7.8-5.1-12.48-5.1
		c-4.68,0-9.17,1.83-12.48,5.1C5920.15-2449.05,5918.29-2444.63,5918.29-2440.01z"/>
	<path class="st10" d="M5136.47-2226.65c50.9,0,92.17-40.83,92.17-91.19c0-50.36-41.26-91.19-92.17-91.19
		c-50.9,0-92.17,40.83-92.17,91.19C5044.3-2267.48,5085.57-2226.65,5136.47-2226.65z"/>
	<path class="st10" d="M4911.65-2226.65c50.9,0,92.16-40.83,92.16-91.19c0-50.36-41.26-91.19-92.16-91.19
		c-50.9,0-92.17,40.83-92.17,91.19C4819.48-2267.48,4860.75-2226.65,4911.65-2226.65z"/>
	<path class="st3" d="M6009.86-2582.02h-3.77c-10.21,0-18.48,8.16-18.48,18.22v105.46c0,10.06,8.27,18.22,18.48,18.22h3.77
		c10.21,0,18.48-8.16,18.48-18.22v-105.46C6028.34-2573.86,6020.07-2582.02,6009.86-2582.02z"/>
	<path class="st3" d="M6236.92-2555.45c8.52,0,15.42-6.8,15.42-15.2c0-8.39-6.9-15.2-15.42-15.2h-234c-8.52,0-15.42,6.8-15.42,15.2
		c0,8.39,6.9,15.2,15.42,15.2H6236.92z"/>
	<path class="st17" d="M6009.98-2462.98l-1031.12-5.22l-145.96-0.81c-2.56,0.03-5.04,0.89-7.06,2.44c-1.34,0.66-2.54,1.57-3.53,2.67
		c-42.73,46.41-84.28,94.32-128.42,139.22c-10.83,11.6,6.36,28.31,17.19,17.06c43.2-44.55,84.28-90.96,126.54-137.37l1026.65,5.57
		l145.84,0.7c3.26-0.02,6.39-1.31,8.68-3.59c2.3-2.29,3.58-5.38,3.56-8.59c-0.02-3.22-1.33-6.29-3.64-8.56
		C6016.38-2461.73,6013.24-2463,6009.98-2462.98z"/>
	<path class="st16" d="M5274.19-2632.95h-15.3v-24.25h42.85v111.49h-27.54V-2632.95z"/>
	<path class="st16" d="M5405.43-2566.59c23.54-19.61,49.44-38.98,49.44-58.01c0-8.12-3.65-13.34-11.77-13.34
		c-8.12,0-12.48,6.15-12.48,16.71h-25.42c-0.36-5.16,0.4-10.34,2.23-15.19c1.83-4.85,4.7-9.25,8.4-12.92s8.15-6.52,13.06-8.35
		s10.16-2.62,15.39-2.29c25.66,0,37.08,14.85,37.08,33.65c0,24.48-22.13,44.09-40.02,58.01H5483v21.23h-77.57V-2566.59z"/>
	<path class="st16" d="M5601.89-2659.86c23.54,0,36.61,13.46,36.61,30.28c0.27,5.42-1.23,10.78-4.28,15.29
		c-3.05,4.51-7.49,7.94-12.67,9.77v0.58c5.79,1.7,10.82,5.29,14.27,10.18c3.44,4.89,5.1,10.79,4.69,16.73
		c0,18.79-13.54,32.25-37.19,32.25c-23.66,0-40.49-11.6-41.32-36.2h25.66c-0.18,1.95,0.07,3.91,0.75,5.75
		c0.68,1.84,1.75,3.51,3.16,4.9c1.41,1.38,3.1,2.45,4.97,3.11c1.87,0.67,3.86,0.92,5.84,0.74c1.7,0.12,3.4-0.12,4.99-0.71
		c1.59-0.59,3.04-1.51,4.23-2.7c1.2-1.19,2.12-2.62,2.7-4.2c0.58-1.58,0.81-3.26,0.67-4.93c0-9.98-6-13.92-19.77-13.92h-4.94v-21.23
		h4.94c9.06,0,17.66-2.09,17.66-11.6c0.17-1.56-0.02-3.14-0.56-4.63c-0.53-1.48-1.39-2.83-2.52-3.94c-1.13-1.11-2.49-1.96-4-2.49
		c-1.5-0.52-3.11-0.71-4.69-0.55c-3.12,0-6.12,1.22-8.32,3.4c-2.21,2.18-3.45,5.13-3.45,8.2h-25.78
		C5564.34-2647.8,5579.17-2659.86,5601.89-2659.86z"/>
	<path class="st3" d="M6216.91-2569.95v54.53c0.36,4.24,2.32,8.18,5.49,11.06c3.17,2.88,7.33,4.48,11.64,4.48s8.47-1.6,11.64-4.48
		c3.17-2.88,5.13-6.83,5.49-11.06v-54.53c-0.36-4.24-2.31-8.18-5.49-11.06c-3.17-2.88-7.33-4.48-11.64-4.48s-8.47,1.6-11.64,4.48
		S6217.27-2574.19,6216.91-2569.95z"/>
</g>
<circle cx="-3662.89" cy="-2746.92" r="960.26"/>
<g>
	<path class="st16" d="M-3215.99-2743.57v174.84c0,4.62,1.86,9.04,5.17,12.31c3.31,3.26,7.8,5.1,12.48,5.1
		c4.68,0,9.17-1.83,12.48-5.1c3.31-3.26,5.17-7.69,5.17-12.31v-174.84c0-4.61-1.86-9.04-5.17-12.3c-3.31-3.26-7.8-5.1-12.48-5.1
		c-4.68,0-9.17,1.83-12.48,5.1C-3214.13-2752.62-3215.99-2748.19-3215.99-2743.57z"/>
	<path class="st10" d="M-3997.81-2530.22c50.9,0,92.17-40.83,92.17-91.19c0-50.36-41.26-91.19-92.17-91.19s-92.17,40.83-92.17,91.19
		C-4089.98-2571.04-4048.71-2530.22-3997.81-2530.22z"/>
	<path class="st10" d="M-4222.63-2530.22c50.9,0,92.16-40.83,92.16-91.19c0-50.36-41.26-91.19-92.16-91.19
		c-50.9,0-92.17,40.83-92.17,91.19C-4314.8-2571.04-4273.53-2530.22-4222.63-2530.22z"/>
	<path class="st3" d="M-3124.42-2885.58h-3.77c-10.21,0-18.48,8.16-18.48,18.21v105.46c0,10.06,8.27,18.22,18.48,18.22h3.77
		c10.21,0,18.48-8.15,18.48-18.22v-105.46C-3105.94-2877.42-3114.21-2885.58-3124.42-2885.58z"/>
	<path class="st3" d="M-2897.36-2859.01c8.52,0,15.42-6.8,15.42-15.2s-6.9-15.2-15.42-15.2h-234c-8.52,0-15.42,6.8-15.42,15.2
		s6.9,15.2,15.42,15.2H-2897.36z"/>
	<path class="st17" d="M-3124.3-2766.54l-1031.12-5.22l-145.96-0.81c-2.56,0.03-5.04,0.89-7.06,2.44c-1.34,0.66-2.54,1.57-3.53,2.67
		c-42.73,46.41-84.28,94.32-128.42,139.22c-10.83,11.6,6.36,28.31,17.19,17.06c43.2-44.55,84.28-90.96,126.54-137.37l1026.65,5.57
		l145.84,0.7c3.26-0.02,6.39-1.31,8.68-3.59c2.3-2.28,3.58-5.38,3.56-8.59c-0.02-3.22-1.33-6.29-3.64-8.56
		C-3117.9-2765.3-3121.04-2766.56-3124.3-2766.54z"/>
	<path class="st16" d="M-3860.09-2936.51h-15.3v-24.25h42.85v111.49h-27.54V-2936.51z"/>
	<path class="st16" d="M-3728.85-2870.15c23.54-19.61,49.44-38.98,49.44-58.01c0-8.12-3.65-13.34-11.77-13.34
		c-8.12,0-12.48,6.15-12.48,16.71h-25.42c-0.36-5.16,0.4-10.34,2.23-15.19c1.83-4.85,4.7-9.25,8.4-12.92
		c3.7-3.67,8.15-6.52,13.06-8.35s10.16-2.62,15.39-2.29c25.66,0,37.08,14.85,37.08,33.65c0,24.48-22.13,44.09-40.02,58.01h41.67
		v21.23h-77.57V-2870.15z"/>
	<path class="st16" d="M-3532.39-2963.43c23.54,0,36.61,13.46,36.61,30.28c0.27,5.42-1.23,10.78-4.28,15.29
		c-3.05,4.51-7.49,7.94-12.67,9.77v0.58c5.79,1.7,10.82,5.29,14.27,10.18c3.44,4.89,5.1,10.79,4.69,16.73
		c0,18.79-13.54,32.25-37.2,32.25s-40.49-11.6-41.32-36.2h25.66c-0.18,1.95,0.07,3.91,0.75,5.75s1.75,3.51,3.16,4.9
		c1.41,1.38,3.1,2.45,4.97,3.11c1.87,0.67,3.86,0.92,5.84,0.74c1.7,0.12,3.4-0.12,4.99-0.71c1.59-0.59,3.04-1.51,4.23-2.7
		c1.2-1.19,2.12-2.62,2.7-4.2c0.58-1.58,0.81-3.26,0.67-4.93c0-9.98-6-13.92-19.78-13.92h-4.94v-21.23h4.94
		c9.06,0,17.66-2.09,17.66-11.6c0.17-1.56-0.02-3.14-0.56-4.63c-0.53-1.48-1.39-2.83-2.52-3.94c-1.13-1.11-2.49-1.96-4-2.49
		c-1.51-0.53-3.11-0.71-4.7-0.55c-3.12,0-6.12,1.22-8.32,3.4c-2.21,2.18-3.45,5.13-3.45,8.2h-25.78
		C-3569.94-2951.36-3555.11-2963.43-3532.39-2963.43z"/>
	<path class="st3" d="M-2917.37-2873.51v54.53c0.36,4.24,2.32,8.18,5.49,11.06c3.17,2.88,7.33,4.48,11.64,4.48
		c4.31,0,8.47-1.6,11.64-4.48c3.17-2.88,5.13-6.83,5.49-11.06v-54.53c-0.36-4.24-2.31-8.18-5.49-11.06
		c-3.17-2.88-7.33-4.48-11.64-4.48c-4.31,0-8.47,1.6-11.64,4.48C-2915.05-2881.7-2917.01-2877.75-2917.37-2873.51z"/>
</g>
</svg>
