<svg width="416" height="438" viewBox="0 0 416 438" fill="none" xmlns="http://www.w3.org/2000/svg">
<rect x="0.5" y="0.5" width="415" height="437" rx="9.5" fill="#EDEDED" stroke="black"/>
<g clip-path="url(#clip0_2_307)">
<path d="M244.734 307.09H102.944C94.6869 307.09 88 300.407 88 292.154V112.936C88 104.699 94.6869 98 102.944 98H312.137C320.378 98 327.081 104.699 327.081 112.936V224.769C322.466 221.851 317.474 219.544 312.137 217.96V112.936H102.944V292.154H237.906C239.491 297.489 241.799 302.493 244.719 307.09H244.734ZM258.281 145.821V145.789C258.281 134.305 248.988 125.017 237.514 125.017C226.023 125.017 216.715 134.305 216.715 145.774V145.805C216.715 157.29 225.992 166.593 237.482 166.593C248.972 166.609 258.281 157.305 258.281 145.836V145.821ZM117.871 207.432V277.218H235.536C235.52 276.543 235.442 275.9 235.442 275.226C235.442 242.278 262.252 215.481 295.216 215.481C295.891 215.481 296.534 215.559 297.209 215.575V177.56L237.435 222.369L162.718 162.64L117.887 207.448L117.871 207.432ZM347 275.226C347 303.811 323.816 327 295.2 327C266.584 327 243.4 303.811 243.4 275.226C243.4 246.64 266.584 223.451 295.2 223.451C323.816 223.451 347 246.624 347 275.226ZM324.742 298.65H265.674V307.075H324.742V298.65ZM324.742 264.918L295.2 235.391L265.658 264.918H282.533V290.224H307.852V264.918H324.726H324.742Z" fill="black"/>
</g>
<path d="M109.14 368.364V375.924C109.14 376.68 109.326 377.262 109.698 377.67C110.07 378.078 110.616 378.282 111.336 378.282C112.056 378.282 112.608 378.078 112.992 377.67C113.376 377.262 113.568 376.68 113.568 375.924V368.364H116.646V375.906C116.646 377.034 116.406 377.988 115.926 378.768C115.446 379.548 114.798 380.136 113.982 380.532C113.178 380.928 112.278 381.126 111.282 381.126C110.286 381.126 109.392 380.934 108.6 380.55C107.82 380.154 107.202 379.566 106.746 378.786C106.29 377.994 106.062 377.034 106.062 375.906V368.364H109.14ZM121.885 372.378C122.185 371.91 122.599 371.532 123.127 371.244C123.655 370.956 124.273 370.812 124.981 370.812C125.809 370.812 126.559 371.022 127.231 371.442C127.903 371.862 128.431 372.462 128.815 373.242C129.211 374.022 129.409 374.928 129.409 375.96C129.409 376.992 129.211 377.904 128.815 378.696C128.431 379.476 127.903 380.082 127.231 380.514C126.559 380.934 125.809 381.144 124.981 381.144C124.285 381.144 123.667 381 123.127 380.712C122.599 380.424 122.185 380.052 121.885 379.596V385.788H118.807V370.956H121.885V372.378ZM126.277 375.96C126.277 375.192 126.061 374.592 125.629 374.16C125.209 373.716 124.687 373.494 124.063 373.494C123.451 373.494 122.929 373.716 122.497 374.16C122.077 374.604 121.867 375.21 121.867 375.978C121.867 376.746 122.077 377.352 122.497 377.796C122.929 378.24 123.451 378.462 124.063 378.462C124.675 378.462 125.197 378.24 125.629 377.796C126.061 377.34 126.277 376.728 126.277 375.96ZM134.102 367.68V381H131.024V367.68H134.102ZM140.905 381.144C139.921 381.144 139.033 380.934 138.241 380.514C137.461 380.094 136.843 379.494 136.387 378.714C135.943 377.934 135.721 377.022 135.721 375.978C135.721 374.946 135.949 374.04 136.405 373.26C136.861 372.468 137.485 371.862 138.277 371.442C139.069 371.022 139.957 370.812 140.941 370.812C141.925 370.812 142.813 371.022 143.605 371.442C144.397 371.862 145.021 372.468 145.477 373.26C145.933 374.04 146.161 374.946 146.161 375.978C146.161 377.01 145.927 377.922 145.459 378.714C145.003 379.494 144.373 380.094 143.569 380.514C142.777 380.934 141.889 381.144 140.905 381.144ZM140.905 378.48C141.493 378.48 141.991 378.264 142.399 377.832C142.819 377.4 143.029 376.782 143.029 375.978C143.029 375.174 142.825 374.556 142.417 374.124C142.021 373.692 141.529 373.476 140.941 373.476C140.341 373.476 139.843 373.692 139.447 374.124C139.051 374.544 138.853 375.162 138.853 375.978C138.853 376.782 139.045 377.4 139.429 377.832C139.825 378.264 140.317 378.48 140.905 378.48ZM147.182 375.96C147.182 374.928 147.374 374.022 147.758 373.242C148.154 372.462 148.688 371.862 149.36 371.442C150.032 371.022 150.782 370.812 151.61 370.812C152.318 370.812 152.936 370.956 153.464 371.244C154.004 371.532 154.418 371.91 154.706 372.378V370.956H157.784V381H154.706V379.578C154.406 380.046 153.986 380.424 153.446 380.712C152.918 381 152.3 381.144 151.592 381.144C150.776 381.144 150.032 380.934 149.36 380.514C148.688 380.082 148.154 379.476 147.758 378.696C147.374 377.904 147.182 376.992 147.182 375.96ZM154.706 375.978C154.706 375.21 154.49 374.604 154.058 374.16C153.638 373.716 153.122 373.494 152.51 373.494C151.898 373.494 151.376 373.716 150.944 374.16C150.524 374.592 150.314 375.192 150.314 375.96C150.314 376.728 150.524 377.34 150.944 377.796C151.376 378.24 151.898 378.462 152.51 378.462C153.122 378.462 153.638 378.24 154.058 377.796C154.49 377.352 154.706 376.746 154.706 375.978ZM159.399 375.96C159.399 374.928 159.591 374.022 159.975 373.242C160.371 372.462 160.905 371.862 161.577 371.442C162.249 371.022 162.999 370.812 163.827 370.812C164.487 370.812 165.087 370.95 165.627 371.226C166.179 371.502 166.611 371.874 166.923 372.342V367.68H170.001V381H166.923V379.56C166.635 380.04 166.221 380.424 165.681 380.712C165.153 381 164.535 381.144 163.827 381.144C162.999 381.144 162.249 380.934 161.577 380.514C160.905 380.082 160.371 379.476 159.975 378.696C159.591 377.904 159.399 376.992 159.399 375.96ZM166.923 375.978C166.923 375.21 166.707 374.604 166.275 374.16C165.855 373.716 165.339 373.494 164.727 373.494C164.115 373.494 163.593 373.716 163.161 374.16C162.741 374.592 162.531 375.192 162.531 375.96C162.531 376.728 162.741 377.34 163.161 377.796C163.593 378.24 164.115 378.462 164.727 378.462C165.339 378.462 165.855 378.24 166.275 377.796C166.707 377.352 166.923 376.746 166.923 375.978ZM175.52 374.664C175.52 373.416 175.79 372.306 176.33 371.334C176.87 370.35 177.62 369.588 178.58 369.048C179.552 368.496 180.65 368.22 181.874 368.22C183.374 368.22 184.658 368.616 185.726 369.408C186.794 370.2 187.508 371.28 187.868 372.648H184.484C184.232 372.12 183.872 371.718 183.404 371.442C182.948 371.166 182.426 371.028 181.838 371.028C180.89 371.028 180.122 371.358 179.534 372.018C178.946 372.678 178.652 373.56 178.652 374.664C178.652 375.768 178.946 376.65 179.534 377.31C180.122 377.97 180.89 378.3 181.838 378.3C182.426 378.3 182.948 378.162 183.404 377.886C183.872 377.61 184.232 377.208 184.484 376.68H187.868C187.508 378.048 186.794 379.128 185.726 379.92C184.658 380.7 183.374 381.09 181.874 381.09C180.65 381.09 179.552 380.82 178.58 380.28C177.62 379.728 176.87 378.966 176.33 377.994C175.79 377.022 175.52 375.912 175.52 374.664ZM194.325 381.144C193.341 381.144 192.453 380.934 191.661 380.514C190.881 380.094 190.263 379.494 189.807 378.714C189.363 377.934 189.141 377.022 189.141 375.978C189.141 374.946 189.369 374.04 189.825 373.26C190.281 372.468 190.905 371.862 191.697 371.442C192.489 371.022 193.377 370.812 194.361 370.812C195.345 370.812 196.233 371.022 197.025 371.442C197.817 371.862 198.441 372.468 198.897 373.26C199.353 374.04 199.581 374.946 199.581 375.978C199.581 377.01 199.347 377.922 198.879 378.714C198.423 379.494 197.793 380.094 196.989 380.514C196.197 380.934 195.309 381.144 194.325 381.144ZM194.325 378.48C194.913 378.48 195.411 378.264 195.819 377.832C196.239 377.4 196.449 376.782 196.449 375.978C196.449 375.174 196.245 374.556 195.837 374.124C195.441 373.692 194.949 373.476 194.361 373.476C193.761 373.476 193.263 373.692 192.867 374.124C192.471 374.544 192.273 375.162 192.273 375.978C192.273 376.782 192.465 377.4 192.849 377.832C193.245 378.264 193.737 378.48 194.325 378.48ZM214.03 370.848C215.278 370.848 216.268 371.226 217 371.982C217.744 372.738 218.116 373.788 218.116 375.132V381H215.056V375.546C215.056 374.898 214.882 374.4 214.534 374.052C214.198 373.692 213.73 373.512 213.13 373.512C212.53 373.512 212.056 373.692 211.708 374.052C211.372 374.4 211.204 374.898 211.204 375.546V381H208.144V375.546C208.144 374.898 207.97 374.4 207.622 374.052C207.286 373.692 206.818 373.512 206.218 373.512C205.618 373.512 205.144 373.692 204.796 374.052C204.46 374.4 204.292 374.898 204.292 375.546V381H201.214V370.956H204.292V372.216C204.604 371.796 205.012 371.466 205.516 371.226C206.02 370.974 206.59 370.848 207.226 370.848C207.982 370.848 208.654 371.01 209.242 371.334C209.842 371.658 210.31 372.12 210.646 372.72C210.994 372.168 211.468 371.718 212.068 371.37C212.668 371.022 213.322 370.848 214.03 370.848ZM223.346 372.378C223.646 371.91 224.06 371.532 224.588 371.244C225.116 370.956 225.734 370.812 226.442 370.812C227.27 370.812 228.02 371.022 228.692 371.442C229.364 371.862 229.892 372.462 230.276 373.242C230.672 374.022 230.87 374.928 230.87 375.96C230.87 376.992 230.672 377.904 230.276 378.696C229.892 379.476 229.364 380.082 228.692 380.514C228.02 380.934 227.27 381.144 226.442 381.144C225.746 381.144 225.128 381 224.588 380.712C224.06 380.424 223.646 380.052 223.346 379.596V385.788H220.268V370.956H223.346V372.378ZM227.738 375.96C227.738 375.192 227.522 374.592 227.09 374.16C226.67 373.716 226.148 373.494 225.524 373.494C224.912 373.494 224.39 373.716 223.958 374.16C223.538 374.604 223.328 375.21 223.328 375.978C223.328 376.746 223.538 377.352 223.958 377.796C224.39 378.24 224.912 378.462 225.524 378.462C226.136 378.462 226.658 378.24 227.09 377.796C227.522 377.34 227.738 376.728 227.738 375.96ZM231.873 375.96C231.873 374.928 232.065 374.022 232.449 373.242C232.845 372.462 233.379 371.862 234.051 371.442C234.723 371.022 235.473 370.812 236.301 370.812C237.009 370.812 237.627 370.956 238.155 371.244C238.695 371.532 239.109 371.91 239.397 372.378V370.956H242.475V381H239.397V379.578C239.097 380.046 238.677 380.424 238.137 380.712C237.609 381 236.991 381.144 236.283 381.144C235.467 381.144 234.723 380.934 234.051 380.514C233.379 380.082 232.845 379.476 232.449 378.696C232.065 377.904 231.873 376.992 231.873 375.96ZM239.397 375.978C239.397 375.21 239.181 374.604 238.749 374.16C238.329 373.716 237.813 373.494 237.201 373.494C236.589 373.494 236.067 373.716 235.635 374.16C235.215 374.592 235.005 375.192 235.005 375.96C235.005 376.728 235.215 377.34 235.635 377.796C236.067 378.24 236.589 378.462 237.201 378.462C237.813 378.462 238.329 378.24 238.749 377.796C239.181 377.352 239.397 376.746 239.397 375.978ZM250.822 370.848C251.998 370.848 252.934 371.232 253.63 372C254.338 372.756 254.692 373.8 254.692 375.132V381H251.632V375.546C251.632 374.874 251.458 374.352 251.11 373.98C250.762 373.608 250.294 373.422 249.706 373.422C249.118 373.422 248.65 373.608 248.302 373.98C247.954 374.352 247.78 374.874 247.78 375.546V381H244.702V370.956H247.78V372.288C248.092 371.844 248.512 371.496 249.04 371.244C249.568 370.98 250.162 370.848 250.822 370.848ZM267.091 370.956L260.791 385.77H257.479L259.783 380.658L255.697 370.956H259.135L261.457 377.238L263.761 370.956H267.091ZM275.096 378.624H279.128V381H272.018V368.364H275.096V378.624ZM285.168 381.144C284.184 381.144 283.296 380.934 282.504 380.514C281.724 380.094 281.106 379.494 280.65 378.714C280.206 377.934 279.984 377.022 279.984 375.978C279.984 374.946 280.212 374.04 280.668 373.26C281.124 372.468 281.748 371.862 282.54 371.442C283.332 371.022 284.22 370.812 285.204 370.812C286.188 370.812 287.076 371.022 287.868 371.442C288.66 371.862 289.284 372.468 289.74 373.26C290.196 374.04 290.424 374.946 290.424 375.978C290.424 377.01 290.19 377.922 289.722 378.714C289.266 379.494 288.636 380.094 287.832 380.514C287.04 380.934 286.152 381.144 285.168 381.144ZM285.168 378.48C285.756 378.48 286.254 378.264 286.662 377.832C287.082 377.4 287.292 376.782 287.292 375.978C287.292 375.174 287.088 374.556 286.68 374.124C286.284 373.692 285.792 373.476 285.204 373.476C284.604 373.476 284.106 373.692 283.71 374.124C283.314 374.544 283.116 375.162 283.116 375.978C283.116 376.782 283.308 377.4 283.692 377.832C284.088 378.264 284.58 378.48 285.168 378.48ZM295.873 370.812C296.581 370.812 297.199 370.956 297.727 371.244C298.267 371.532 298.681 371.91 298.969 372.378V370.956H302.047V380.982C302.047 381.906 301.861 382.74 301.489 383.484C301.129 384.24 300.571 384.84 299.815 385.284C299.071 385.728 298.141 385.95 297.025 385.95C295.537 385.95 294.331 385.596 293.407 384.888C292.483 384.192 291.955 383.244 291.823 382.044H294.865C294.961 382.428 295.189 382.728 295.549 382.944C295.909 383.172 296.353 383.286 296.881 383.286C297.517 383.286 298.021 383.1 298.393 382.728C298.777 382.368 298.969 381.786 298.969 380.982V379.56C298.669 380.028 298.255 380.412 297.727 380.712C297.199 381 296.581 381.144 295.873 381.144C295.045 381.144 294.295 380.934 293.623 380.514C292.951 380.082 292.417 379.476 292.021 378.696C291.637 377.904 291.445 376.992 291.445 375.96C291.445 374.928 291.637 374.022 292.021 373.242C292.417 372.462 292.951 371.862 293.623 371.442C294.295 371.022 295.045 370.812 295.873 370.812ZM298.969 375.978C298.969 375.21 298.753 374.604 298.321 374.16C297.901 373.716 297.385 373.494 296.773 373.494C296.161 373.494 295.639 373.716 295.207 374.16C294.787 374.592 294.577 375.192 294.577 375.96C294.577 376.728 294.787 377.34 295.207 377.796C295.639 378.24 296.161 378.462 296.773 378.462C297.385 378.462 297.901 378.24 298.321 377.796C298.753 377.352 298.969 376.746 298.969 375.978ZM308.846 381.144C307.862 381.144 306.974 380.934 306.182 380.514C305.402 380.094 304.784 379.494 304.328 378.714C303.884 377.934 303.662 377.022 303.662 375.978C303.662 374.946 303.89 374.04 304.346 373.26C304.802 372.468 305.426 371.862 306.218 371.442C307.01 371.022 307.898 370.812 308.882 370.812C309.866 370.812 310.754 371.022 311.546 371.442C312.338 371.862 312.962 372.468 313.418 373.26C313.874 374.04 314.102 374.946 314.102 375.978C314.102 377.01 313.868 377.922 313.4 378.714C312.944 379.494 312.314 380.094 311.51 380.514C310.718 380.934 309.83 381.144 308.846 381.144ZM308.846 378.48C309.434 378.48 309.932 378.264 310.34 377.832C310.76 377.4 310.97 376.782 310.97 375.978C310.97 375.174 310.766 374.556 310.358 374.124C309.962 373.692 309.47 373.476 308.882 373.476C308.282 373.476 307.784 373.692 307.388 374.124C306.992 374.544 306.794 375.162 306.794 375.978C306.794 376.782 306.986 377.4 307.37 377.832C307.766 378.264 308.258 378.48 308.846 378.48Z" fill="black"/>
<defs>
<clipPath id="clip0_2_307">
<rect width="259" height="229" fill="white" transform="translate(88 98)"/>
</clipPath>
</defs>
</svg>
