<?xml version="1.0" encoding="utf-8"?>
<!-- Generator: Adobe Illustrator 27.0.0, SVG Export Plug-In . SVG Version: 6.00 Build 0)  -->
<svg version="1.1" id="Layer_1" xmlns="http://www.w3.org/2000/svg" xmlns:xlink="http://www.w3.org/1999/xlink" x="0px" y="0px"
	 viewBox="0 0 416 438" style="enable-background:new 0 0 416 438;" xml:space="preserve">
<style type="text/css">
	.st0{fill:#EDEDED;stroke:#000000;}
	.st1{display:none;}
</style>
<path class="st0" d="M10,0.5h396c5.2,0,9.5,4.3,9.5,9.5v418c0,5.2-4.3,9.5-9.5,9.5H10c-5.2,0-9.5-4.3-9.5-9.5V10
	C0.5,4.8,4.8,0.5,10,0.5z"/>
<path class="st1" d="M109.1,368.4v7.6c0,0.8,0.2,1.3,0.6,1.7c0.4,0.4,0.9,0.6,1.6,0.6s1.3-0.2,1.7-0.6c0.4-0.4,0.6-1,0.6-1.7v-7.6
	h3.1v7.5c0,1.1-0.2,2.1-0.7,2.9c-0.5,0.8-1.1,1.4-1.9,1.8c-0.8,0.4-1.7,0.6-2.7,0.6c-1,0-1.9-0.2-2.7-0.6c-0.8-0.4-1.4-1-1.9-1.8
	c-0.5-0.8-0.7-1.8-0.7-2.9v-7.5H109.1z M121.9,372.4c0.3-0.5,0.7-0.8,1.2-1.1c0.5-0.3,1.1-0.4,1.9-0.4c0.8,0,1.6,0.2,2.2,0.6
	c0.7,0.4,1.2,1,1.6,1.8c0.4,0.8,0.6,1.7,0.6,2.7c0,1-0.2,1.9-0.6,2.7c-0.4,0.8-0.9,1.4-1.6,1.8c-0.7,0.4-1.4,0.6-2.2,0.6
	c-0.7,0-1.3-0.1-1.9-0.4c-0.5-0.3-0.9-0.7-1.2-1.1v6.2h-3.1V371h3.1V372.4z M126.3,376c0-0.8-0.2-1.4-0.6-1.8
	c-0.4-0.4-0.9-0.7-1.6-0.7c-0.6,0-1.1,0.2-1.6,0.7c-0.4,0.4-0.6,1-0.6,1.8s0.2,1.4,0.6,1.8c0.4,0.4,1,0.7,1.6,0.7
	c0.6,0,1.1-0.2,1.6-0.7C126.1,377.3,126.3,376.7,126.3,376z M134.1,367.7V381H131v-13.3H134.1z M140.9,381.1c-1,0-1.9-0.2-2.7-0.6
	c-0.8-0.4-1.4-1-1.9-1.8c-0.4-0.8-0.7-1.7-0.7-2.7c0-1,0.2-1.9,0.7-2.7c0.5-0.8,1.1-1.4,1.9-1.8c0.8-0.4,1.7-0.6,2.7-0.6
	c1,0,1.9,0.2,2.7,0.6c0.8,0.4,1.4,1,1.9,1.8c0.5,0.8,0.7,1.7,0.7,2.7c0,1-0.2,1.9-0.7,2.7c-0.5,0.8-1.1,1.4-1.9,1.8
	C142.8,380.9,141.9,381.1,140.9,381.1z M140.9,378.5c0.6,0,1.1-0.2,1.5-0.6c0.4-0.4,0.6-1,0.6-1.9c0-0.8-0.2-1.4-0.6-1.9
	c-0.4-0.4-0.9-0.6-1.5-0.6c-0.6,0-1.1,0.2-1.5,0.6c-0.4,0.4-0.6,1-0.6,1.9c0,0.8,0.2,1.4,0.6,1.9
	C139.8,378.3,140.3,378.5,140.9,378.5z M147.2,376c0-1,0.2-1.9,0.6-2.7c0.4-0.8,0.9-1.4,1.6-1.8c0.7-0.4,1.4-0.6,2.2-0.6
	c0.7,0,1.3,0.1,1.9,0.4c0.5,0.3,1,0.7,1.2,1.1V371h3.1v10h-3.1v-1.4c-0.3,0.5-0.7,0.8-1.3,1.1c-0.5,0.3-1.1,0.4-1.9,0.4
	c-0.8,0-1.6-0.2-2.2-0.6c-0.7-0.4-1.2-1-1.6-1.8C147.4,377.9,147.2,377,147.2,376z M154.7,376c0-0.8-0.2-1.4-0.6-1.8
	c-0.4-0.4-0.9-0.7-1.5-0.7s-1.1,0.2-1.6,0.7c-0.4,0.4-0.6,1-0.6,1.8s0.2,1.4,0.6,1.8c0.4,0.4,1,0.7,1.6,0.7s1.1-0.2,1.5-0.7
	C154.5,377.4,154.7,376.7,154.7,376z M159.4,376c0-1,0.2-1.9,0.6-2.7c0.4-0.8,0.9-1.4,1.6-1.8c0.7-0.4,1.4-0.6,2.2-0.6
	c0.7,0,1.3,0.1,1.8,0.4c0.6,0.3,1,0.6,1.3,1.1v-4.7h3.1V381h-3.1v-1.4c-0.3,0.5-0.7,0.9-1.2,1.2c-0.5,0.3-1.1,0.4-1.9,0.4
	c-0.8,0-1.6-0.2-2.2-0.6c-0.7-0.4-1.2-1-1.6-1.8C159.6,377.9,159.4,377,159.4,376z M166.9,376c0-0.8-0.2-1.4-0.6-1.8
	c-0.4-0.4-0.9-0.7-1.5-0.7s-1.1,0.2-1.6,0.7c-0.4,0.4-0.6,1-0.6,1.8s0.2,1.4,0.6,1.8c0.4,0.4,1,0.7,1.6,0.7s1.1-0.2,1.5-0.7
	C166.7,377.4,166.9,376.7,166.9,376z M175.5,374.7c0-1.2,0.3-2.4,0.8-3.3c0.5-1,1.3-1.7,2.2-2.3c1-0.6,2.1-0.8,3.3-0.8
	c1.5,0,2.8,0.4,3.9,1.2c1.1,0.8,1.8,1.9,2.1,3.2h-3.4c-0.3-0.5-0.6-0.9-1.1-1.2c-0.5-0.3-1-0.4-1.6-0.4c-0.9,0-1.7,0.3-2.3,1
	s-0.9,1.5-0.9,2.6s0.3,2,0.9,2.6s1.4,1,2.3,1c0.6,0,1.1-0.1,1.6-0.4c0.5-0.3,0.8-0.7,1.1-1.2h3.4c-0.4,1.4-1.1,2.4-2.1,3.2
	c-1.1,0.8-2.4,1.2-3.9,1.2c-1.2,0-2.3-0.3-3.3-0.8c-1-0.6-1.7-1.3-2.2-2.3C175.8,377,175.5,375.9,175.5,374.7z M194.3,381.1
	c-1,0-1.9-0.2-2.7-0.6c-0.8-0.4-1.4-1-1.9-1.8c-0.4-0.8-0.7-1.7-0.7-2.7c0-1,0.2-1.9,0.7-2.7c0.5-0.8,1.1-1.4,1.9-1.8
	c0.8-0.4,1.7-0.6,2.7-0.6c1,0,1.9,0.2,2.7,0.6c0.8,0.4,1.4,1,1.9,1.8c0.5,0.8,0.7,1.7,0.7,2.7c0,1-0.2,1.9-0.7,2.7
	c-0.5,0.8-1.1,1.4-1.9,1.8C196.2,380.9,195.3,381.1,194.3,381.1z M194.3,378.5c0.6,0,1.1-0.2,1.5-0.6c0.4-0.4,0.6-1,0.6-1.9
	c0-0.8-0.2-1.4-0.6-1.9c-0.4-0.4-0.9-0.6-1.5-0.6c-0.6,0-1.1,0.2-1.5,0.6c-0.4,0.4-0.6,1-0.6,1.9c0,0.8,0.2,1.4,0.6,1.9
	C193.2,378.3,193.7,378.5,194.3,378.5z M214,370.8c1.2,0,2.2,0.4,3,1.1c0.7,0.8,1.1,1.8,1.1,3.1v5.9h-3.1v-5.5
	c0-0.6-0.2-1.1-0.5-1.5c-0.3-0.4-0.8-0.5-1.4-0.5c-0.6,0-1.1,0.2-1.4,0.5c-0.3,0.3-0.5,0.8-0.5,1.5v5.5h-3.1v-5.5
	c0-0.6-0.2-1.1-0.5-1.5c-0.3-0.4-0.8-0.5-1.4-0.5c-0.6,0-1.1,0.2-1.4,0.5c-0.3,0.3-0.5,0.8-0.5,1.5v5.5h-3.1v-10h3.1v1.3
	c0.3-0.4,0.7-0.8,1.2-1c0.5-0.3,1.1-0.4,1.7-0.4c0.8,0,1.4,0.2,2,0.5c0.6,0.3,1.1,0.8,1.4,1.4c0.3-0.6,0.8-1,1.4-1.4
	C212.7,371,213.3,370.8,214,370.8z M223.3,372.4c0.3-0.5,0.7-0.8,1.2-1.1c0.5-0.3,1.1-0.4,1.9-0.4c0.8,0,1.6,0.2,2.2,0.6
	c0.7,0.4,1.2,1,1.6,1.8c0.4,0.8,0.6,1.7,0.6,2.7c0,1-0.2,1.9-0.6,2.7c-0.4,0.8-0.9,1.4-1.6,1.8c-0.7,0.4-1.4,0.6-2.2,0.6
	c-0.7,0-1.3-0.1-1.9-0.4c-0.5-0.3-0.9-0.7-1.2-1.1v6.2h-3.1V371h3.1V372.4z M227.7,376c0-0.8-0.2-1.4-0.6-1.8
	c-0.4-0.4-0.9-0.7-1.6-0.7c-0.6,0-1.1,0.2-1.6,0.7c-0.4,0.4-0.6,1-0.6,1.8s0.2,1.4,0.6,1.8c0.4,0.4,1,0.7,1.6,0.7s1.1-0.2,1.6-0.7
	C227.5,377.3,227.7,376.7,227.7,376z M231.9,376c0-1,0.2-1.9,0.6-2.7c0.4-0.8,0.9-1.4,1.6-1.8c0.7-0.4,1.4-0.6,2.2-0.6
	c0.7,0,1.3,0.1,1.9,0.4c0.5,0.3,1,0.7,1.2,1.1V371h3.1v10h-3.1v-1.4c-0.3,0.5-0.7,0.8-1.3,1.1c-0.5,0.3-1.1,0.4-1.9,0.4
	c-0.8,0-1.6-0.2-2.2-0.6c-0.7-0.4-1.2-1-1.6-1.8C232.1,377.9,231.9,377,231.9,376z M239.4,376c0-0.8-0.2-1.4-0.6-1.8
	c-0.4-0.4-0.9-0.7-1.5-0.7s-1.1,0.2-1.6,0.7c-0.4,0.4-0.6,1-0.6,1.8s0.2,1.4,0.6,1.8c0.4,0.4,1,0.7,1.6,0.7s1.1-0.2,1.5-0.7
	C239.2,377.4,239.4,376.7,239.4,376z M250.8,370.8c1.2,0,2.1,0.4,2.8,1.2c0.7,0.8,1.1,1.8,1.1,3.1v5.9h-3.1v-5.5
	c0-0.7-0.2-1.2-0.5-1.6c-0.3-0.4-0.8-0.6-1.4-0.6c-0.6,0-1.1,0.2-1.4,0.6c-0.3,0.4-0.5,0.9-0.5,1.6v5.5h-3.1v-10h3.1v1.3
	c0.3-0.4,0.7-0.8,1.3-1C249.6,371,250.2,370.8,250.8,370.8z M267.1,371l-6.3,14.8h-3.3l2.3-5.1l-4.1-9.7h3.4l2.3,6.3l2.3-6.3H267.1z
	 M275.1,378.6h4v2.4H272v-12.6h3.1V378.6z M285.2,381.1c-1,0-1.9-0.2-2.7-0.6c-0.8-0.4-1.4-1-1.9-1.8c-0.4-0.8-0.7-1.7-0.7-2.7
	c0-1,0.2-1.9,0.7-2.7c0.5-0.8,1.1-1.4,1.9-1.8c0.8-0.4,1.7-0.6,2.7-0.6c1,0,1.9,0.2,2.7,0.6c0.8,0.4,1.4,1,1.9,1.8
	c0.5,0.8,0.7,1.7,0.7,2.7c0,1-0.2,1.9-0.7,2.7c-0.5,0.8-1.1,1.4-1.9,1.8C287,380.9,286.2,381.1,285.2,381.1z M285.2,378.5
	c0.6,0,1.1-0.2,1.5-0.6c0.4-0.4,0.6-1,0.6-1.9c0-0.8-0.2-1.4-0.6-1.9c-0.4-0.4-0.9-0.6-1.5-0.6c-0.6,0-1.1,0.2-1.5,0.6
	c-0.4,0.4-0.6,1-0.6,1.9c0,0.8,0.2,1.4,0.6,1.9C284.1,378.3,284.6,378.5,285.2,378.5z M295.9,370.8c0.7,0,1.3,0.1,1.9,0.4
	c0.5,0.3,1,0.7,1.2,1.1V371h3.1v10c0,0.9-0.2,1.8-0.6,2.5c-0.4,0.8-0.9,1.4-1.7,1.8c-0.7,0.4-1.7,0.7-2.8,0.7
	c-1.5,0-2.7-0.4-3.6-1.1c-0.9-0.7-1.5-1.6-1.6-2.8h3c0.1,0.4,0.3,0.7,0.7,0.9c0.4,0.2,0.8,0.3,1.3,0.3c0.6,0,1.1-0.2,1.5-0.6
	c0.4-0.4,0.6-0.9,0.6-1.7v-1.4c-0.3,0.5-0.7,0.9-1.2,1.2c-0.5,0.3-1.1,0.4-1.9,0.4c-0.8,0-1.6-0.2-2.2-0.6c-0.7-0.4-1.2-1-1.6-1.8
	c-0.4-0.8-0.6-1.7-0.6-2.7c0-1,0.2-1.9,0.6-2.7c0.4-0.8,0.9-1.4,1.6-1.8C294.3,371,295,370.8,295.9,370.8z M299,376
	c0-0.8-0.2-1.4-0.6-1.8c-0.4-0.4-0.9-0.7-1.5-0.7s-1.1,0.2-1.6,0.7c-0.4,0.4-0.6,1-0.6,1.8s0.2,1.4,0.6,1.8c0.4,0.4,1,0.7,1.6,0.7
	s1.1-0.2,1.5-0.7C298.8,377.4,299,376.7,299,376z M308.8,381.1c-1,0-1.9-0.2-2.7-0.6c-0.8-0.4-1.4-1-1.9-1.8
	c-0.4-0.8-0.7-1.7-0.7-2.7c0-1,0.2-1.9,0.7-2.7c0.5-0.8,1.1-1.4,1.9-1.8c0.8-0.4,1.7-0.6,2.7-0.6c1,0,1.9,0.2,2.7,0.6
	c0.8,0.4,1.4,1,1.9,1.8c0.5,0.8,0.7,1.7,0.7,2.7c0,1-0.2,1.9-0.7,2.7c-0.5,0.8-1.1,1.4-1.9,1.8C310.7,380.9,309.8,381.1,308.8,381.1
	z M308.8,378.5c0.6,0,1.1-0.2,1.5-0.6c0.4-0.4,0.6-1,0.6-1.9c0-0.8-0.2-1.4-0.6-1.9c-0.4-0.4-0.9-0.6-1.5-0.6
	c-0.6,0-1.1,0.2-1.5,0.6c-0.4,0.4-0.6,1-0.6,1.9c0,0.8,0.2,1.4,0.6,1.9C307.8,378.3,308.3,378.5,308.8,378.5z"/>
<g>
	<path d="M107.6,367.8v8c0,0.8,0.2,1.4,0.6,1.8s1,0.6,1.7,0.6s1.3-0.2,1.7-0.6c0.4-0.4,0.6-1,0.6-1.8v-8h3.2v8c0,1.2-0.3,2.2-0.8,3
		c-0.5,0.8-1.2,1.4-2,1.9c-0.9,0.4-1.8,0.6-2.9,0.6c-1.1,0-2-0.2-2.8-0.6c-0.8-0.4-1.5-1-2-1.9c-0.5-0.8-0.7-1.8-0.7-3v-8H107.6z"/>
	<path d="M122.3,370.8c0.6-0.3,1.2-0.5,2-0.5c0.9,0,1.7,0.2,2.4,0.7c0.7,0.4,1.3,1.1,1.7,1.9c0.4,0.8,0.6,1.8,0.6,2.9
		c0,1.1-0.2,2-0.6,2.9c-0.4,0.8-1,1.5-1.7,1.9c-0.7,0.5-1.5,0.7-2.4,0.7c-0.7,0-1.4-0.2-1.9-0.5c-0.6-0.3-1-0.7-1.3-1.2v6.5h-3.2
		v-15.7h3.2v1.5C121.3,371.5,121.8,371.1,122.3,370.8z M125,373.9c-0.4-0.5-1-0.7-1.7-0.7c-0.6,0-1.2,0.2-1.6,0.7
		c-0.5,0.5-0.7,1.1-0.7,1.9s0.2,1.5,0.7,1.9c0.4,0.5,1,0.7,1.6,0.7c0.6,0,1.2-0.2,1.7-0.7c0.5-0.5,0.7-1.1,0.7-1.9
		C125.7,375,125.4,374.3,125,373.9z"/>
	<path d="M133.9,367v14.1h-3.2V367H133.9z"/>
	<path d="M138.3,380.6c-0.8-0.4-1.5-1.1-2-1.9c-0.5-0.8-0.7-1.8-0.7-2.9c0-1.1,0.2-2,0.7-2.9c0.5-0.8,1.1-1.5,2-1.9s1.8-0.7,2.8-0.7
		c1,0,2,0.2,2.8,0.7s1.5,1.1,2,1.9c0.5,0.8,0.7,1.8,0.7,2.9c0,1.1-0.2,2-0.7,2.9c-0.5,0.8-1.2,1.5-2,1.9c-0.8,0.4-1.8,0.7-2.8,0.7
		C140.1,381.3,139.1,381,138.3,380.6z M142.7,377.8c0.4-0.5,0.7-1.1,0.7-2s-0.2-1.5-0.6-2c-0.4-0.5-0.9-0.7-1.6-0.7
		c-0.6,0-1.2,0.2-1.6,0.7c-0.4,0.5-0.6,1.1-0.6,2c0,0.8,0.2,1.5,0.6,2c0.4,0.5,0.9,0.7,1.5,0.7C141.7,378.4,142.3,378.2,142.7,377.8
		z"/>
	<path d="M148.4,372.9c0.4-0.8,1-1.5,1.7-1.9c0.7-0.4,1.5-0.7,2.4-0.7c0.7,0,1.4,0.2,2,0.5s1,0.7,1.3,1.2v-1.5h3.2v10.6h-3.2v-1.5
		c-0.3,0.5-0.8,0.9-1.3,1.2c-0.6,0.3-1.2,0.5-2,0.5c-0.9,0-1.6-0.2-2.4-0.7c-0.7-0.4-1.3-1.1-1.7-1.9c-0.4-0.8-0.6-1.8-0.6-2.9
		C147.7,374.7,147.9,373.7,148.4,372.9z M155,373.9c-0.4-0.5-1-0.7-1.6-0.7c-0.6,0-1.2,0.2-1.6,0.7c-0.5,0.5-0.7,1.1-0.7,1.9
		c0,0.8,0.2,1.5,0.7,1.9c0.4,0.5,1,0.7,1.6,0.7c0.6,0,1.2-0.2,1.6-0.7c0.5-0.5,0.7-1.1,0.7-1.9S155.5,374.4,155,373.9z"/>
	<path d="M161.3,372.9c0.4-0.8,1-1.5,1.7-1.9c0.7-0.4,1.5-0.7,2.4-0.7c0.7,0,1.3,0.1,1.9,0.4c0.6,0.3,1,0.7,1.4,1.2V367h3.2v14.1
		h-3.2v-1.5c-0.3,0.5-0.7,0.9-1.3,1.2c-0.6,0.3-1.2,0.5-2,0.5c-0.9,0-1.7-0.2-2.4-0.7c-0.7-0.4-1.3-1.1-1.7-1.9
		c-0.4-0.8-0.6-1.8-0.6-2.9C160.6,374.7,160.8,373.7,161.3,372.9z M167.9,373.9c-0.4-0.5-1-0.7-1.6-0.7c-0.6,0-1.2,0.2-1.6,0.7
		c-0.5,0.5-0.7,1.1-0.7,1.9c0,0.8,0.2,1.5,0.7,1.9c0.4,0.5,1,0.7,1.6,0.7c0.6,0,1.2-0.2,1.6-0.7c0.5-0.5,0.7-1.1,0.7-1.9
		S168.4,374.4,167.9,373.9z"/>
	<path d="M187.8,374.2c-0.4,0.6-0.9,1.2-1.6,1.5s-1.6,0.6-2.7,0.6h-2v4.8h-3.2v-13.3h5.3c1.1,0,2,0.2,2.7,0.6s1.3,0.9,1.7,1.5
		c0.4,0.6,0.6,1.4,0.6,2.2C188.4,372.8,188.2,373.5,187.8,374.2z M184.6,373.3c0.3-0.3,0.5-0.7,0.5-1.2s-0.2-0.9-0.5-1.2
		c-0.3-0.3-0.8-0.4-1.4-0.4h-1.8v3.3h1.8C183.8,373.7,184.3,373.6,184.6,373.3z"/>
	<path d="M194.7,370.9c0.6-0.3,1.2-0.5,1.9-0.5v3.4h-0.9c-0.8,0-1.4,0.2-1.8,0.5c-0.4,0.3-0.6,1-0.6,1.8v4.9h-3.2v-10.6h3.2v1.8
		C193.7,371.7,194.2,371.2,194.7,370.9z"/>
	<path d="M200.2,380.6c-0.8-0.4-1.5-1.1-2-1.9c-0.5-0.8-0.7-1.8-0.7-2.9c0-1.1,0.2-2,0.7-2.9c0.5-0.8,1.1-1.5,2-1.9s1.8-0.7,2.8-0.7
		c1,0,2,0.2,2.8,0.7s1.5,1.1,2,1.9c0.5,0.8,0.7,1.8,0.7,2.9c0,1.1-0.2,2-0.7,2.9c-0.5,0.8-1.2,1.5-2,1.9c-0.8,0.4-1.8,0.7-2.8,0.7
		C202,381.3,201,381,200.2,380.6z M204.6,377.8c0.4-0.5,0.7-1.1,0.7-2s-0.2-1.5-0.6-2c-0.4-0.5-0.9-0.7-1.6-0.7
		c-0.6,0-1.2,0.2-1.6,0.7c-0.4,0.5-0.6,1.1-0.6,2c0,0.8,0.2,1.5,0.6,2c0.4,0.5,0.9,0.7,1.5,0.7C203.6,378.4,204.2,378.2,204.6,377.8
		z"/>
	<path d="M215.6,373.2h-1.7v7.9h-3.2v-7.9h-1.2v-2.7h1.2v-0.3c0-1.3,0.4-2.3,1.1-3c0.7-0.7,1.8-1,3.3-1c0.2,0,0.4,0,0.5,0v2.8
		c-0.6,0-1.1,0.1-1.3,0.3c-0.3,0.2-0.4,0.6-0.4,1.2v0.1h1.7V373.2z"/>
	<path d="M217.4,368.9c-0.4-0.3-0.5-0.8-0.5-1.2c0-0.5,0.2-0.9,0.5-1.3c0.4-0.3,0.8-0.5,1.4-0.5c0.6,0,1,0.2,1.4,0.5
		c0.4,0.3,0.5,0.8,0.5,1.3c0,0.5-0.2,0.9-0.5,1.2c-0.4,0.3-0.8,0.5-1.4,0.5C218.2,369.4,217.7,369.2,217.4,368.9z M220.4,370.5v10.6
		h-3.2v-10.6H220.4z"/>
	<path d="M226,367v14.1h-3.2V367H226z"/>
	<path d="M238.3,376.6h-7.4c0,0.7,0.3,1.2,0.6,1.5c0.4,0.3,0.8,0.5,1.4,0.5c0.8,0,1.4-0.3,1.7-1h3.5c-0.2,0.7-0.5,1.3-1,1.9
		c-0.5,0.6-1,1-1.7,1.3c-0.7,0.3-1.5,0.5-2.3,0.5c-1,0-2-0.2-2.8-0.7s-1.4-1.1-1.9-1.9s-0.7-1.8-0.7-2.9c0-1.1,0.2-2.1,0.7-2.9
		c0.4-0.8,1.1-1.5,1.9-1.9c0.8-0.4,1.7-0.7,2.8-0.7c1,0,1.9,0.2,2.7,0.6c0.8,0.4,1.4,1,1.9,1.8c0.4,0.8,0.7,1.7,0.7,2.8
		C238.3,375.9,238.3,376.3,238.3,376.6z M235,374.8c0-0.6-0.2-1-0.6-1.3c-0.4-0.3-0.9-0.5-1.4-0.5c-0.5,0-1,0.2-1.4,0.5
		s-0.6,0.8-0.7,1.3H235z"/>
	<path d="M253.7,374.2c-0.4,0.6-0.9,1.2-1.6,1.5s-1.6,0.6-2.7,0.6h-2v4.8h-3.2v-13.3h5.3c1.1,0,2,0.2,2.7,0.6s1.3,0.9,1.7,1.5
		c0.4,0.6,0.6,1.4,0.6,2.2C254.2,372.8,254.1,373.5,253.7,374.2z M250.5,373.3c0.3-0.3,0.5-0.7,0.5-1.2s-0.2-0.9-0.5-1.2
		c-0.3-0.3-0.8-0.4-1.4-0.4h-1.8v3.3h1.8C249.7,373.7,250.2,373.6,250.5,373.3z"/>
	<path d="M256.2,368.9c-0.4-0.3-0.5-0.8-0.5-1.2c0-0.5,0.2-0.9,0.5-1.3c0.4-0.3,0.8-0.5,1.4-0.5c0.6,0,1,0.2,1.4,0.5
		c0.4,0.3,0.5,0.8,0.5,1.3c0,0.5-0.2,0.9-0.5,1.2c-0.4,0.3-0.8,0.5-1.4,0.5C257,369.4,256.5,369.2,256.2,368.9z M259.2,370.5v10.6
		h-3.2v-10.6H259.2z"/>
	<path d="M261.6,372.9c0.4-0.8,1.1-1.5,1.9-1.9c0.8-0.4,1.7-0.7,2.8-0.7c1.3,0,2.4,0.3,3.3,1c0.9,0.7,1.5,1.7,1.8,2.9h-3.5
		c-0.3-0.8-0.9-1.2-1.7-1.2c-0.6,0-1.1,0.2-1.4,0.7c-0.4,0.5-0.5,1.1-0.5,2s0.2,1.5,0.5,2c0.4,0.5,0.8,0.7,1.4,0.7
		c0.8,0,1.4-0.4,1.7-1.2h3.5c-0.3,1.2-0.9,2.2-1.8,2.9c-0.9,0.7-2,1.1-3.3,1.1c-1,0-2-0.2-2.8-0.7c-0.8-0.4-1.4-1.1-1.9-1.9
		s-0.7-1.8-0.7-2.9C260.9,374.7,261.1,373.7,261.6,372.9z"/>
	<path d="M278.9,378.4v2.8h-1.7c-1.2,0-2.1-0.3-2.8-0.9c-0.7-0.6-1-1.5-1-2.8v-4.2h-1.3v-2.7h1.3v-2.6h3.2v2.6h2.1v2.7h-2.1v4.3
		c0,0.3,0.1,0.5,0.2,0.7c0.2,0.1,0.4,0.2,0.8,0.2H278.9z"/>
	<path d="M291.2,370.5v10.6H288v-1.4c-0.3,0.5-0.8,0.8-1.3,1.1s-1.2,0.4-1.9,0.4c-0.8,0-1.5-0.2-2.1-0.5c-0.6-0.4-1.1-0.9-1.4-1.6
		c-0.3-0.7-0.5-1.5-0.5-2.4v-6.2h3.2v5.8c0,0.7,0.2,1.3,0.6,1.7c0.4,0.4,0.9,0.6,1.5,0.6c0.6,0,1.1-0.2,1.5-0.6
		c0.4-0.4,0.6-0.9,0.6-1.7v-5.8H291.2z"/>
	<path d="M298.2,370.9c0.6-0.3,1.2-0.5,1.9-0.5v3.4h-0.9c-0.8,0-1.4,0.2-1.8,0.5c-0.4,0.3-0.6,1-0.6,1.8v4.9h-3.2v-10.6h3.2v1.8
		C297.2,371.7,297.7,371.2,298.2,370.9z"/>
	<path d="M311.6,376.6h-7.4c0.1,0.7,0.3,1.2,0.6,1.5c0.4,0.3,0.8,0.5,1.4,0.5c0.8,0,1.4-0.3,1.7-1h3.5c-0.2,0.7-0.5,1.3-1,1.9
		c-0.5,0.6-1,1-1.7,1.3c-0.7,0.3-1.5,0.5-2.3,0.5c-1,0-2-0.2-2.8-0.7c-0.8-0.4-1.4-1.1-1.9-1.9s-0.7-1.8-0.7-2.9
		c0-1.1,0.2-2.1,0.7-2.9c0.4-0.8,1.1-1.5,1.9-1.9s1.7-0.7,2.8-0.7c1,0,1.9,0.2,2.7,0.6c0.8,0.4,1.4,1,1.9,1.8
		c0.4,0.8,0.7,1.7,0.7,2.8C311.7,375.9,311.7,376.3,311.6,376.6z M308.4,374.8c0-0.6-0.2-1-0.6-1.3c-0.4-0.3-0.9-0.5-1.4-0.5
		c-0.5,0-1,0.2-1.4,0.5c-0.4,0.3-0.6,0.8-0.7,1.3H308.4z"/>
</g>
<g>
	<path d="M311,201.8c-0.3,56.8-44.8,101.5-99.8,103.1c-58.7,1.8-106-45.1-106.3-102.5c-0.3-56.5,44.8-103,101.8-103.6
		C264.5,98.3,310.7,144.2,311,201.8z M281.8,251.8c22.4-31.3,22.7-82.5-13.5-115.8c-35.8-33-92-30.9-125.1,4.4
		c-33.3,35.5-28.9,84.4-8.9,111.3c20.5-20.1,45-30.9,73.8-30.9C236.9,220.9,261.4,231.7,281.8,251.8z"/>
	<path d="M208.2,126.3c22.6-0.1,41.1,18.6,41.1,41.4c0,22.5-18.5,41-40.9,41.1c-22.8,0.1-41.5-18.4-41.5-40.9
		C166.8,144.8,185.1,126.4,208.2,126.3z"/>
</g>
</svg>
